<svg width="80" height="80" viewBox="0 0 80 80" fill="none" xmlns="http://www.w3.org/2000/svg">
<path d="M80 40C80 29.3913 75.7857 19.2172 68.2843 11.7157C60.7828 4.21427 50.6087 8.00932e-07 40 0C29.3913 -8.00931e-07 19.2172 4.21427 11.7157 11.7157C4.21428 19.2172 1.60186e-06 29.3913 0 40L17.6 40C17.6 34.0591 19.96 28.3616 24.1608 24.1608C28.3616 19.96 34.0592 17.6 40 17.6C45.9408 17.6 51.6384 19.96 55.8392 24.1608C60.04 28.3616 62.4 34.0592 62.4 40H80Z" fill="#526E88"/>
<path d="M80 40C80 33.091 78.2104 26.2998 74.8057 20.2879C71.4009 14.2761 66.497 9.24867 60.5717 5.69541C54.6464 2.14215 47.9018 0.184224 40.9949 0.0123753C34.088 -0.159473 27.2544 1.46061 21.1597 4.71481L29.4495 20.2403C32.8625 18.4179 36.6893 17.5107 40.5572 17.6069C44.425 17.7032 48.202 18.7996 51.5202 20.7894C54.8383 22.7793 57.5845 25.5946 59.4912 28.9612C61.3978 32.3279 62.4 36.1309 62.4 40H80Z" fill="#95A7B8"/>
<path d="M80 40C80 34.4268 78.8354 28.9151 76.5808 23.8183C74.3262 18.7216 71.0314 14.1522 66.9077 10.4031L55.0683 23.4257C57.3776 25.5252 59.2227 28.0841 60.4852 30.9383C61.7478 33.7925 62.4 36.879 62.4 40H80Z" fill="#D1DCE7"/>
<circle cx="40" cy="40" r="8" fill="#95A7B8"/>
</svg>
