<svg width="24" height="24" viewBox="0 0 24 24" fill="none" xmlns="http://www.w3.org/2000/svg">
<path d="M20.9318 8.72222C20.9318 8.30801 20.596 7.97222 20.1818 7.97222C19.7676 7.97222 19.4318 8.30801 19.4318 8.72222H20.9318ZM4.56818 8.72222C4.56818 8.30801 4.2324 7.97222 3.81818 7.97222C3.40397 7.97222 3.06818 8.30801 3.06818 8.72222H4.56818ZM10.1818 11.75C9.7676 11.75 9.43182 12.0858 9.43182 12.5C9.43182 12.9142 9.7676 13.25 10.1818 13.25V11.75ZM13.8182 13.25C14.2324 13.25 14.5682 12.9142 14.5682 12.5C14.5682 12.0858 14.2324 11.75 13.8182 11.75V13.25ZM19.4318 8.72222V20H20.9318V8.72222H19.4318ZM19.1818 20.25H4.81818V21.75H19.1818V20.25ZM4.56818 20V8.72222H3.06818V20H4.56818ZM3 4.75H21V3.25H3V4.75ZM21.25 5V7.72222H22.75V5H21.25ZM21 7.97222H3V9.47222H21V7.97222ZM2.75 7.72222V5H1.25V7.72222H2.75ZM10.1818 13.25H13.8182V11.75H10.1818V13.25ZM3 7.97222C2.86193 7.97222 2.75 7.86029 2.75 7.72222H1.25C1.25 8.68872 2.0335 9.47222 3 9.47222V7.97222ZM21 4.75C21.1381 4.75 21.25 4.86193 21.25 5H22.75C22.75 4.0335 21.9665 3.25 21 3.25V4.75ZM3 3.25C2.0335 3.25 1.25 4.0335 1.25 5H2.75C2.75 4.86193 2.86193 4.75 3 4.75V3.25ZM4.81818 20.25C4.68011 20.25 4.56818 20.1381 4.56818 20H3.06818C3.06818 20.9665 3.85168 21.75 4.81818 21.75V20.25ZM21.25 7.72222C21.25 7.86029 21.1381 7.97222 21 7.97222V9.47222C21.9665 9.47222 22.75 8.68872 22.75 7.72222H21.25ZM19.4318 20C19.4318 20.1381 19.3199 20.25 19.1818 20.25V21.75C20.1483 21.75 20.9318 20.9665 20.9318 20H19.4318Z" fill="#526E88"/>
</svg>
