<svg width="18" height="18" viewBox="0 0 18 18" fill="none" xmlns="http://www.w3.org/2000/svg">
<path d="M10.125 9C10.125 9.62132 9.62132 10.125 9 10.125C8.37868 10.125 7.875 9.62132 7.875 9C7.875 8.37868 8.37868 7.875 9 7.875C9.62132 7.875 10.125 8.37868 10.125 9Z" fill="#526E88"/>
<path d="M13.666 13.7794C13.4061 14.102 13.4569 14.5741 13.7794 14.834C14.102 15.0939 14.5741 15.0431 14.834 14.7206L13.666 13.7794ZM15.75 9H15H15.75ZM14.8551 3.30682C14.6103 2.97266 14.141 2.90018 13.8068 3.14495C13.4727 3.38971 13.4002 3.85902 13.6449 4.19318L14.8551 3.30682ZM5.84467 12.1553C6.13756 12.4482 6.61244 12.4482 6.90533 12.1553C7.19822 11.8624 7.19822 11.3876 6.90533 11.0947L5.84467 12.1553ZM6.90533 6.90533C7.19822 6.61244 7.19822 6.13756 6.90533 5.84467C6.61244 5.55178 6.13756 5.55178 5.84467 5.84467L6.90533 6.90533ZM11.0947 11.0947C10.8018 11.3876 10.8018 11.8624 11.0947 12.1553C11.3876 12.4482 11.8624 12.4482 12.1553 12.1553L11.0947 11.0947ZM12.1553 5.84467C11.8624 5.55178 11.3876 5.55178 11.0947 5.84467C10.8018 6.13756 10.8018 6.61244 11.0947 6.90533L12.1553 5.84467ZM3.16598 14.7206C3.42586 15.0431 3.89801 15.0939 4.22055 14.834C4.5431 14.5741 4.5939 14.102 4.33402 13.7794L3.16598 14.7206ZM2.25 9H3H2.25ZM4.35505 4.19318C4.59982 3.85902 4.52734 3.38971 4.19318 3.14495C3.85902 2.90018 3.38971 2.97266 3.14495 3.30682L4.35505 4.19318ZM14.834 14.7206C15.8742 13.4295 16.5 11.3444 16.5 9H15C15 11.1237 14.4258 12.8365 13.666 13.7794L14.834 14.7206ZM16.5 9C16.5 6.75173 15.8672 4.6887 14.8551 3.30682L13.6449 4.19318C14.4328 5.26875 15 7.00359 15 9H16.5ZM6.90533 11.0947C6.5746 10.7639 6.35639 10.463 6.21661 10.1485C6.07828 9.83728 6 9.47499 6 9H4.5C4.5 9.65001 4.60922 10.2252 4.84589 10.7577C5.08111 11.287 5.42539 11.7361 5.84467 12.1553L6.90533 11.0947ZM6 9C6 8.52501 6.07828 8.16272 6.21661 7.85148C6.35639 7.53698 6.5746 7.23605 6.90533 6.90533L5.84467 5.84467C5.42539 6.26395 5.08111 6.71302 4.84589 7.24227C4.60922 7.77478 4.5 8.34999 4.5 9H6ZM12.1553 12.1553C12.5746 11.7361 12.9189 11.287 13.1541 10.7577C13.3908 10.2252 13.5 9.65001 13.5 9H12C12 9.47499 11.9217 9.83728 11.7834 10.1485C11.6436 10.463 11.4254 10.7639 11.0947 11.0947L12.1553 12.1553ZM13.5 9C13.5 8.34999 13.3908 7.77478 13.1541 7.24227C12.9189 6.71302 12.5746 6.26395 12.1553 5.84467L11.0947 6.90533C11.4254 7.23605 11.6436 7.53698 11.7834 7.85148C11.9217 8.16272 12 8.52501 12 9H13.5ZM4.33402 13.7794C3.57425 12.8365 3 11.1237 3 9H1.5C1.5 11.3444 2.12575 13.4295 3.16598 14.7206L4.33402 13.7794ZM3 9C3 7.00359 3.56724 5.26875 4.35505 4.19318L3.14495 3.30682C2.13276 4.6887 1.5 6.75173 1.5 9H3Z" fill="#526E88"/>
</svg>
