<svg width="24" height="24" viewBox="0 0 24 24" fill="none" xmlns="http://www.w3.org/2000/svg">
<path d="M16.751 3C16.751 2.58579 16.4152 2.25 16.001 2.25C15.5868 2.25 15.251 2.58579 15.251 3L16.751 3ZM15.251 6C15.251 6.41421 15.5868 6.75 16.001 6.75C16.4152 6.75 16.751 6.41421 16.751 6H15.251ZM8.75098 3C8.75098 2.58579 8.41519 2.25 8.00098 2.25C7.58676 2.25 7.25098 2.58579 7.25098 3H8.75098ZM7.25098 6C7.25098 6.41421 7.58676 6.75 8.00098 6.75C8.41519 6.75 8.75098 6.41421 8.75098 6H7.25098ZM3.00098 8.25C2.58676 8.25 2.25098 8.58579 2.25098 9C2.25098 9.41421 2.58676 9.75 3.00098 9.75V8.25ZM21.001 9.75C21.4152 9.75 21.751 9.41421 21.751 9C21.751 8.58579 21.4152 8.25 21.001 8.25V9.75ZM5.00098 5.25L19.001 5.25V3.75L5.00098 3.75V5.25ZM19.001 5.25C19.7323 5.25 20.251 5.79971 20.251 6.38889L21.751 6.38889C21.751 4.89166 20.4788 3.75 19.001 3.75V5.25ZM20.251 6.38889L20.251 19.6111H21.751L21.751 6.38889L20.251 6.38889ZM20.251 19.6111C20.251 20.2003 19.7323 20.75 19.001 20.75V22.25C20.4788 22.25 21.751 21.1083 21.751 19.6111H20.251ZM19.001 20.75L5.00098 20.75L5.00098 22.25L19.001 22.25V20.75ZM5.00098 20.75C4.26965 20.75 3.75098 20.2003 3.75098 19.6111H2.25098C2.25098 21.1083 3.52316 22.25 5.00098 22.25L5.00098 20.75ZM3.75098 19.6111L3.75098 6.38889H2.25098L2.25098 19.6111H3.75098ZM3.75098 6.38889C3.75098 5.79971 4.26965 5.25 5.00098 5.25V3.75C3.52316 3.75 2.25098 4.89166 2.25098 6.38889H3.75098ZM15.251 3V6H16.751V3L15.251 3ZM7.25098 3L7.25098 6H8.75098V3H7.25098ZM3.00098 9.75L21.001 9.75V8.25L3.00098 8.25V9.75Z" fill="#526E88"/>
</svg>
