<svg width="24" height="24" viewBox="0 0 24 24" fill="none" xmlns="http://www.w3.org/2000/svg">
<path d="M23 7H23.75C23.75 6.71906 23.593 6.46168 23.3432 6.33312C23.0934 6.20457 22.7927 6.22641 22.5641 6.3897L23 7ZM16 12L15.5641 11.3897C15.367 11.5305 15.25 11.7578 15.25 12C15.25 12.2422 15.367 12.4695 15.5641 12.6103L16 12ZM23 17L22.5641 17.6103C22.7927 17.7736 23.0934 17.7954 23.3432 17.6669C23.593 17.5383 23.75 17.2809 23.75 17H23ZM22.5641 6.3897L15.5641 11.3897L16.4359 12.6103L23.4359 7.6103L22.5641 6.3897ZM15.5641 12.6103L22.5641 17.6103L23.4359 16.3897L16.4359 11.3897L15.5641 12.6103ZM23.75 17V7H22.25V17H23.75ZM3 5.75H14V4.25H3V5.75ZM14 5.75C14.6904 5.75 15.25 6.30964 15.25 7H16.75C16.75 5.48122 15.5188 4.25 14 4.25V5.75ZM15.25 7V17H16.75V7H15.25ZM15.25 17C15.25 17.6904 14.6904 18.25 14 18.25V19.75C15.5188 19.75 16.75 18.5188 16.75 17H15.25ZM14 18.25H3V19.75H14V18.25ZM3 18.25C2.30964 18.25 1.75 17.6904 1.75 17H0.25C0.25 18.5188 1.48122 19.75 3 19.75V18.25ZM1.75 17V7H0.25V17H1.75ZM1.75 7C1.75 6.30964 2.30964 5.75 3 5.75V4.25C1.48122 4.25 0.25 5.48122 0.25 7H1.75Z" fill="white"/>
</svg>
