<svg width="24" height="24" viewBox="0 0 24 24" fill="none" xmlns="http://www.w3.org/2000/svg">
<path d="M6 6.02605C5.73366 6.34213 5.48975 6.67837 5.27072 7.03255C4.44061 8.37485 4.00061 9.92176 4 11.5C3.99656 12.8199 4.30493 14.1219 4.9 15.3L3 21L8.7 19.1C9.87812 19.6951 11.1801 20.0034 12.5 20C14.0782 19.9994 15.6251 19.5594 16.9674 18.7293C17.3216 18.5102 17.6579 18.2663 17.974 18M20.1799 15.1375C20.7226 14.0027 21.0033 12.7595 21 11.5V11C20.885 8.91565 20.0052 6.94695 18.5291 5.47086C17.053 3.99476 15.0843 3.11499 13 3H12.5C11.2551 2.99675 10.026 3.27092 8.90183 3.80143" stroke="white" stroke-width="1.5" stroke-linecap="round" stroke-linejoin="round"/>
<path d="M1 1L23 23" stroke="#F45A67" stroke-width="1.5" stroke-linecap="round" stroke-linejoin="round"/>
</svg>
