<svg width="16" height="16" viewBox="0 0 16 16" fill="none" xmlns="http://www.w3.org/2000/svg">
<path d="M10.6667 1.91634C10.2524 1.91634 9.91666 2.25213 9.91666 2.66634C9.91666 3.08055 10.2524 3.41634 10.6667 3.41634V1.91634ZM12 2.66634V1.91634V2.66634ZM2.66666 13.333H1.91666H2.66666ZM3.99999 2.66634V1.91634V2.66634ZM5.33332 3.41634C5.74754 3.41634 6.08332 3.08055 6.08332 2.66634C6.08332 2.25213 5.74754 1.91634 5.33332 1.91634V3.41634ZM10.6667 3.41634H12V1.91634H10.6667V3.41634ZM12 3.41634C12.1547 3.41634 12.3031 3.4778 12.4125 3.5872L13.4731 2.52654C13.0824 2.13583 12.5525 1.91634 12 1.91634V3.41634ZM12.4125 3.5872C12.5219 3.69659 12.5833 3.84497 12.5833 3.99967H14.0833C14.0833 3.44714 13.8638 2.91724 13.4731 2.52654L12.4125 3.5872ZM12.5833 3.99967V13.333H14.0833V3.99967H12.5833ZM12.5833 13.333C12.5833 13.4877 12.5219 13.6361 12.4125 13.7455L13.4731 14.8061C13.8638 14.4154 14.0833 13.8855 14.0833 13.333H12.5833ZM12.4125 13.7455C12.3031 13.8549 12.1547 13.9163 12 13.9163V15.4163C12.5525 15.4163 13.0824 15.1968 13.4731 14.8061L12.4125 13.7455ZM12 13.9163H3.99999V15.4163H12V13.9163ZM3.99999 13.9163C3.84528 13.9163 3.69691 13.8549 3.58751 13.7455L2.52685 14.8061C2.91755 15.1968 3.44746 15.4163 3.99999 15.4163V13.9163ZM3.58751 13.7455C3.47811 13.6361 3.41666 13.4877 3.41666 13.333H1.91666C1.91666 13.8855 2.13615 14.4154 2.52685 14.8061L3.58751 13.7455ZM3.41666 13.333V3.99967H1.91666V13.333H3.41666ZM3.41666 3.99967C3.41666 3.84496 3.47811 3.69659 3.58751 3.5872L2.52685 2.52654C2.13615 2.91724 1.91666 3.44714 1.91666 3.99967H3.41666ZM3.58751 3.5872C3.69691 3.4778 3.84528 3.41634 3.99999 3.41634V1.91634C3.44746 1.91634 2.91755 2.13583 2.52685 2.52654L3.58751 3.5872ZM3.99999 3.41634H5.33332V1.91634H3.99999V3.41634ZM5.99999 2.08301H9.99999V0.583008H5.99999V2.08301ZM9.99999 2.08301C9.95397 2.08301 9.91666 2.0457 9.91666 1.99967H11.4167C11.4167 1.21727 10.7824 0.583008 9.99999 0.583008V2.08301ZM9.91666 1.99967V3.33301H11.4167V1.99967H9.91666ZM9.91666 3.33301C9.91666 3.28698 9.95397 3.24967 9.99999 3.24967V4.74967C10.7824 4.74967 11.4167 4.11541 11.4167 3.33301H9.91666ZM9.99999 3.24967H5.99999V4.74967H9.99999V3.24967ZM5.99999 3.24967C6.04601 3.24967 6.08332 3.28698 6.08332 3.33301H4.58332C4.58332 4.11541 5.21759 4.74967 5.99999 4.74967V3.24967ZM6.08332 3.33301V1.99967H4.58332V3.33301H6.08332ZM6.08332 1.99967C6.08332 2.0457 6.04601 2.08301 5.99999 2.08301V0.583008C5.21759 0.583008 4.58332 1.21727 4.58332 1.99967H6.08332Z" fill="#526E88"/>
</svg>
