<svg width="20" height="21" viewBox="0 0 20 21" fill="none" xmlns="http://www.w3.org/2000/svg">
<path d="M12.8032 12.47C12.5103 12.7629 12.5103 13.2378 12.8032 13.5307C13.0961 13.8235 13.5709 13.8235 13.8638 13.5307L12.8032 12.47ZM17.5002 8.83366L18.0305 9.36399C18.3234 9.0711 18.3234 8.59622 18.0305 8.30333L17.5002 8.83366ZM13.8638 4.13666C13.5709 3.84377 13.0961 3.84377 12.8032 4.13666C12.5103 4.42956 12.5103 4.90443 12.8032 5.19732L13.8638 4.13666ZM7.50016 17.0836C7.91438 17.0836 8.25016 16.7478 8.25016 16.3336C8.25016 15.9193 7.91438 15.5836 7.50016 15.5836V17.0836ZM6.66683 16.3336V15.5836H6.66683L6.66683 16.3336ZM6.66683 8.93935L6.64301 9.68897C6.65094 9.68922 6.65889 9.68935 6.66683 9.68935V8.93935ZM16.6668 9.68935C17.081 9.68935 17.4168 9.35356 17.4168 8.93935C17.4168 8.52514 17.081 8.18935 16.6668 8.18935V9.68935ZM13.8638 13.5307L18.0305 9.36399L16.9698 8.30333L12.8032 12.47L13.8638 13.5307ZM18.0305 8.30333L13.8638 4.13666L12.8032 5.19732L16.9698 9.36399L18.0305 8.30333ZM6.66683 16.3336C6.66683 15.5836 6.66723 15.5836 6.66762 15.5836C6.66773 15.5836 6.66811 15.5836 6.66833 15.5836C6.66878 15.5836 6.66919 15.5836 6.66954 15.5836C6.67026 15.5836 6.67078 15.5836 6.67111 15.5836C6.67177 15.5836 6.67169 15.5836 6.67087 15.5836C6.66924 15.5835 6.66472 15.5834 6.6575 15.5832C6.64303 15.5826 6.61791 15.5814 6.58367 15.5786C6.51494 15.5731 6.41112 15.5616 6.28421 15.5378C6.02733 15.4896 5.69393 15.3945 5.36786 15.2111C4.76485 14.8719 4.0835 14.1809 4.0835 12.5835H2.5835C2.5835 14.7361 3.5688 15.9202 4.63246 16.5185C5.13973 16.8038 5.63967 16.9431 6.00778 17.0121C6.19337 17.0469 6.34997 17.0647 6.46353 17.0738C6.52044 17.0784 6.56693 17.0808 6.60129 17.0821C6.61848 17.0828 6.63268 17.0831 6.64366 17.0833C6.64915 17.0834 6.65385 17.0835 6.65772 17.0835C6.65965 17.0835 6.66138 17.0835 6.6629 17.0835C6.66366 17.0835 6.66437 17.0836 6.66502 17.0836C6.66535 17.0836 6.6658 17.0836 6.66597 17.0836C6.6664 17.0836 6.66683 17.0836 6.66683 16.3336ZM4.0835 12.5835C4.0835 11.76 4.26534 11.2022 4.49633 10.8198C4.72747 10.437 5.03428 10.1861 5.35176 10.0176C5.67427 9.84645 6.00512 9.76237 6.2614 9.72246C6.38785 9.70277 6.49137 9.69457 6.55999 9.69124C6.59416 9.68958 6.61924 9.68915 6.63368 9.68906C6.64089 9.68902 6.64541 9.68907 6.64704 9.68909C6.64785 9.6891 6.64794 9.68911 6.64728 9.68909C6.64695 9.68908 6.64643 9.68907 6.64572 9.68905C6.64536 9.68904 6.64496 9.68903 6.64451 9.68902C6.64428 9.68901 6.6439 9.689 6.64379 9.68899C6.6434 9.68898 6.64301 9.68897 6.66683 8.93935C6.69065 8.18973 6.69023 8.18971 6.68979 8.1897C6.68963 8.1897 6.68918 8.18968 6.68885 8.18967C6.6882 8.18965 6.68749 8.18963 6.68673 8.18961C6.68521 8.18957 6.68348 8.18953 6.68155 8.18948C6.67768 8.18939 6.67299 8.1893 6.66749 8.18923C6.65651 8.18908 6.64231 8.18899 6.62511 8.18909C6.59072 8.18928 6.54419 8.19024 6.48721 8.193C6.37353 8.19853 6.21664 8.21135 6.0306 8.24032C5.66187 8.29774 5.15939 8.42155 4.64857 8.69266C4.13272 8.96644 3.60619 9.39216 3.21233 10.0443C2.81832 10.6967 2.5835 11.5319 2.5835 12.5835H4.0835ZM6.66683 9.68935H16.6668V8.18935H6.66683V9.68935ZM7.50016 15.5836H6.66683V17.0836H7.50016V15.5836Z" fill="#526E88"/>
</svg>
