<svg width="24" height="24" viewBox="0 0 24 24" fill="none" xmlns="http://www.w3.org/2000/svg">
<path d="M17.5221 9.53843C17.8195 9.25007 17.8268 8.77525 17.5384 8.47789C17.2501 8.18053 16.7753 8.17322 16.4779 8.46157L17.5221 9.53843ZM10.8125 15L10.2904 15.5384C10.5813 15.8205 11.0437 15.8205 11.3346 15.5384L10.8125 15ZM8.52211 11.7343C8.22475 11.4459 7.74993 11.4533 7.46157 11.7506C7.17322 12.048 7.18053 12.5228 7.47789 12.8112L8.52211 11.7343ZM21.25 12C21.25 17.1086 17.1086 21.25 12 21.25V22.75C17.9371 22.75 22.75 17.9371 22.75 12H21.25ZM12 21.25C6.89137 21.25 2.75 17.1086 2.75 12H1.25C1.25 17.9371 6.06294 22.75 12 22.75V21.25ZM2.75 12C2.75 6.89137 6.89137 2.75 12 2.75V1.25C6.06294 1.25 1.25 6.06294 1.25 12H2.75ZM12 2.75C17.1086 2.75 21.25 6.89137 21.25 12H22.75C22.75 6.06294 17.9371 1.25 12 1.25V2.75ZM16.4779 8.46157L10.2904 14.4616L11.3346 15.5384L17.5221 9.53843L16.4779 8.46157ZM11.3346 14.4616L8.52211 11.7343L7.47789 12.8112L10.2904 15.5384L11.3346 14.4616Z" fill="#0072CE"/>
</svg>
