<svg width="20" height="20" viewBox="0 0 20 20" fill="none" xmlns="http://www.w3.org/2000/svg">
<path d="M18.25 12.5C18.25 12.0858 17.9142 11.75 17.5 11.75C17.0858 11.75 16.75 12.0858 16.75 12.5H18.25ZM2.5 15.8333H1.75H2.5ZM3.25 12.5C3.25 12.0858 2.91421 11.75 2.5 11.75C2.08579 11.75 1.75 12.0858 1.75 12.5H3.25ZM6.36366 7.803C6.07077 7.51011 5.5959 7.51011 5.303 7.803C5.01011 8.0959 5.01011 8.57077 5.303 8.86366L6.36366 7.803ZM10 12.5L9.46967 13.0303C9.76256 13.3232 10.2374 13.3232 10.5303 13.0303L10 12.5ZM14.697 8.86366C14.9899 8.57077 14.9899 8.0959 14.697 7.803C14.4041 7.51011 13.9292 7.51011 13.6363 7.803L14.697 8.86366ZM10.75 2.5C10.75 2.08579 10.4142 1.75 10 1.75C9.58579 1.75 9.25 2.08579 9.25 2.5H10.75ZM16.75 12.5V15.8333H18.25V12.5H16.75ZM16.75 15.8333C16.75 16.0764 16.6534 16.3096 16.4815 16.4815L17.5422 17.5422C17.9954 17.089 18.25 16.4743 18.25 15.8333H16.75ZM16.4815 16.4815C16.3096 16.6534 16.0764 16.75 15.8333 16.75V18.25C16.4743 18.25 17.089 17.9954 17.5422 17.5422L16.4815 16.4815ZM15.8333 16.75H4.16667V18.25H15.8333V16.75ZM4.16667 16.75C3.92355 16.75 3.69039 16.6534 3.51849 16.4815L2.45783 17.5422C2.91104 17.9954 3.52573 18.25 4.16667 18.25V16.75ZM3.51849 16.4815C3.34658 16.3096 3.25 16.0764 3.25 15.8333H1.75C1.75 16.4743 2.00461 17.089 2.45783 17.5422L3.51849 16.4815ZM3.25 15.8333V12.5H1.75V15.8333H3.25ZM5.303 8.86366L9.46967 13.0303L10.5303 11.9697L6.36366 7.803L5.303 8.86366ZM10.5303 13.0303L14.697 8.86366L13.6363 7.803L9.46967 11.9697L10.5303 13.0303ZM10.75 12.5V2.5H9.25V12.5H10.75Z" fill="#0072CE"/>
</svg>
