<svg width="24" height="24" viewBox="0 0 24 24" fill="none" xmlns="http://www.w3.org/2000/svg">
<path d="M7 12C7 13.1046 7.89543 14 9 14C10.1046 14 11 13.1046 11 12C11 10.8954 10.1046 10 9 10C7.89543 10 7 10.8954 7 12Z" fill="#526E88"/>
<path d="M13.0002 12C13.0002 13.1046 13.8957 14 15.0002 14C16.1048 14 17.0002 13.1046 17.0002 12C17.0002 10.8954 16.1048 10 15.0002 10C13.8957 10 13.0002 10.8954 13.0002 12Z" fill="#526E88"/>
<path d="M7 19C7 20.1046 7.89543 21 9 21C10.1046 21 11 20.1046 11 19C11 17.8954 10.1046 17 9 17C7.89543 17 7 17.8954 7 19Z" fill="#526E88"/>
<path d="M13.0002 19C13.0002 20.1046 13.8957 21 15.0002 21C16.1048 21 17.0002 20.1046 17.0002 19C17.0002 17.8954 16.1048 17 15.0002 17C13.8957 17 13.0002 17.8954 13.0002 19Z" fill="#526E88"/>
<path d="M7 5C7 6.10457 7.89543 7 9 7C10.1046 7 11 6.10457 11 5C11 3.89543 10.1046 3 9 3C7.89543 3 7 3.89543 7 5Z" fill="#526E88"/>
<path d="M13.0002 5C13.0002 6.10457 13.8957 7 15.0002 7C16.1048 7 17.0002 6.10457 17.0002 5C17.0002 3.89543 16.1048 3 15.0002 3C13.8957 3 13.0002 3.89543 13.0002 5Z" fill="#526E88"/>
</svg>
