<svg width="24" height="24" viewBox="0 0 24 24" fill="none" xmlns="http://www.w3.org/2000/svg">
<path d="M12 19.25C11.5858 19.25 11.25 19.5858 11.25 20C11.25 20.4142 11.5858 20.75 12 20.75V19.25ZM21 20.75C21.4142 20.75 21.75 20.4142 21.75 20C21.75 19.5858 21.4142 19.25 21 19.25V20.75ZM16.5 3.49998L15.9697 2.96965L16.5 3.49998ZM18 2.87866V2.12866V2.87866ZM20.1213 4.99998H19.3713H20.1213ZM19.5 6.49998L18.9697 5.96965L19.5 6.49998ZM7 19L7.1819 19.7276C7.31378 19.6946 7.43421 19.6264 7.53033 19.5303L7 19ZM3 20L2.27239 19.8181C2.2085 20.0737 2.28338 20.344 2.46967 20.5303C2.65596 20.7166 2.92632 20.7915 3.1819 20.7276L3 20ZM4 16L3.46967 15.4697C3.37355 15.5658 3.30536 15.6862 3.27239 15.8181L4 16ZM12 20.75H21V19.25H12V20.75ZM17.0303 4.03031C17.2875 3.77314 17.6363 3.62866 18 3.62866V2.12866C17.2385 2.12866 16.5081 2.43118 15.9697 2.96965L17.0303 4.03031ZM18 3.62866C18.1801 3.62866 18.3584 3.66413 18.5248 3.73305L19.0988 2.34723C18.7504 2.20293 18.3771 2.12866 18 2.12866V3.62866ZM18.5248 3.73305C18.6912 3.80196 18.8423 3.90297 18.9697 4.03031L20.0303 2.96965C19.7637 2.70303 19.4472 2.49153 19.0988 2.34723L18.5248 3.73305ZM18.9697 4.03031C19.097 4.15765 19.198 4.30882 19.2669 4.4752L20.6528 3.90118C20.5085 3.55281 20.297 3.23628 20.0303 2.96965L18.9697 4.03031ZM19.2669 4.4752C19.3358 4.64158 19.3713 4.8199 19.3713 4.99998H20.8713C20.8713 4.62291 20.7971 4.24954 20.6528 3.90118L19.2669 4.4752ZM19.3713 4.99998C19.3713 5.18007 19.3358 5.35839 19.2669 5.52476L20.6528 6.09879C20.7971 5.75042 20.8713 5.37705 20.8713 4.99998H19.3713ZM19.2669 5.52476C19.198 5.69114 19.097 5.84231 18.9697 5.96965L20.0303 7.03031C20.297 6.76369 20.5085 6.44715 20.6528 6.09879L19.2669 5.52476ZM18.9697 5.96965L6.46967 18.4697L7.53033 19.5303L20.0303 7.03031L18.9697 5.96965ZM6.8181 18.2724L2.8181 19.2724L3.1819 20.7276L7.1819 19.7276L6.8181 18.2724ZM3.72761 20.1819L4.72761 16.1819L3.27239 15.8181L2.27239 19.8181L3.72761 20.1819ZM4.53033 16.5303L17.0303 4.03031L15.9697 2.96965L3.46967 15.4697L4.53033 16.5303Z" fill="#526E88"/>
</svg>
