<svg width="18" height="18" viewBox="0 0 18 18" fill="none" xmlns="http://www.w3.org/2000/svg">
<path d="M6.98488 9.10603C6.69198 8.81314 6.21711 8.81314 5.92422 9.10603C5.63132 9.39893 5.63132 9.8738 5.92422 10.1667L6.98488 9.10603ZM9 12.1818L8.46967 12.7121C8.76256 13.005 9.23744 13.005 9.53033 12.7121L9 12.1818ZM12.0758 10.1667C12.3687 9.8738 12.3687 9.39893 12.0758 9.10603C11.7829 8.81314 11.308 8.81314 11.0151 9.10603L12.0758 10.1667ZM9.75 5.81818C9.75 5.40397 9.41421 5.06818 9 5.06818C8.58579 5.06818 8.25 5.40397 8.25 5.81818H9.75ZM5.92422 10.1667L8.46967 12.7121L9.53033 11.6515L6.98488 9.10603L5.92422 10.1667ZM9.53033 12.7121L12.0758 10.1667L11.0151 9.10603L8.46967 11.6515L9.53033 12.7121ZM9.75 12.1818V5.81818H8.25V12.1818H9.75ZM15.25 9C15.25 12.4518 12.4518 15.25 9 15.25V16.75C13.2802 16.75 16.75 13.2802 16.75 9H15.25ZM9 15.25C5.54822 15.25 2.75 12.4518 2.75 9H1.25C1.25 13.2802 4.71979 16.75 9 16.75V15.25ZM2.75 9C2.75 5.54822 5.54822 2.75 9 2.75V1.25C4.71979 1.25 1.25 4.71979 1.25 9H2.75ZM9 2.75C12.4518 2.75 15.25 5.54822 15.25 9H16.75C16.75 4.71979 13.2802 1.25 9 1.25V2.75Z" fill="#95A7B8"/>
</svg>
