<svg width="24" height="24" viewBox="0 0 24 24" fill="none" xmlns="http://www.w3.org/2000/svg">
<path d="M1 12L0.32918 11.6646C0.223607 11.8757 0.223607 12.1243 0.32918 12.3354L1 12ZM23 12L23.6708 12.3354C23.7764 12.1243 23.7764 11.8757 23.6708 11.6646L23 12ZM1 12C1.67082 12.3354 1.67072 12.3356 1.67064 12.3358C1.67063 12.3358 1.67056 12.3359 1.67054 12.336C1.67051 12.336 1.67054 12.336 1.67063 12.3358C1.6708 12.3354 1.67122 12.3346 1.67188 12.3333C1.67319 12.3307 1.67547 12.3263 1.6787 12.32C1.68517 12.3074 1.69546 12.2876 1.70954 12.2609C1.73771 12.2077 1.78102 12.1274 1.83923 12.0239C1.9557 11.8169 2.13144 11.5176 2.3644 11.1569C2.83126 10.434 3.523 9.47205 4.42215 8.51296C6.23414 6.58017 8.79963 4.75 12 4.75V3.25C8.20037 3.25 5.26586 5.41983 3.32785 7.48704C2.352 8.52795 1.60624 9.56598 1.10435 10.3431C0.852934 10.7324 0.661492 11.0581 0.531865 11.2886C0.467023 11.4038 0.417564 11.4954 0.383723 11.5594C0.3668 11.5913 0.353774 11.6164 0.344675 11.6341C0.340126 11.643 0.336558 11.65 0.333974 11.6551C0.332682 11.6576 0.331636 11.6597 0.330837 11.6613C0.330438 11.6621 0.3301 11.6628 0.329823 11.6633C0.329685 11.6636 0.329524 11.6639 0.329455 11.664C0.32931 11.6643 0.32918 11.6646 1 12ZM12 4.75C15.2004 4.75 17.7659 6.58017 19.5778 8.51296C20.477 9.47205 21.1687 10.434 21.6356 11.1569C21.8686 11.5176 22.0443 11.8169 22.1608 12.0239C22.219 12.1274 22.2623 12.2077 22.2905 12.2609C22.3045 12.2876 22.3148 12.3074 22.3213 12.32C22.3245 12.3263 22.3268 12.3307 22.3281 12.3333C22.3288 12.3346 22.3292 12.3354 22.3294 12.3358C22.3295 12.336 22.3295 12.336 22.3295 12.336C22.3294 12.3359 22.3294 12.3358 22.3294 12.3358C22.3293 12.3356 22.3292 12.3354 23 12C23.6708 11.6646 23.6707 11.6643 23.6705 11.664C23.6705 11.6639 23.6703 11.6636 23.6702 11.6633C23.6699 11.6628 23.6696 11.6621 23.6692 11.6613C23.6684 11.6597 23.6673 11.6576 23.666 11.6551C23.6634 11.65 23.6599 11.643 23.6553 11.6341C23.6462 11.6164 23.6332 11.5913 23.6163 11.5594C23.5824 11.4954 23.533 11.4038 23.4681 11.2886C23.3385 11.0581 23.1471 10.7324 22.8957 10.3431C22.3938 9.56598 21.648 8.52795 20.6722 7.48704C18.7341 5.41983 15.7996 3.25 12 3.25V4.75ZM23 12C22.3292 11.6646 22.3293 11.6644 22.3294 11.6642C22.3294 11.6642 22.3294 11.6641 22.3295 11.664C22.3295 11.664 22.3295 11.664 22.3294 11.6642C22.3292 11.6646 22.3288 11.6654 22.3281 11.6667C22.3268 11.6693 22.3245 11.6737 22.3213 11.68C22.3148 11.6926 22.3045 11.7124 22.2905 11.7391C22.2623 11.7923 22.219 11.8726 22.1608 11.9761C22.0443 12.1831 21.8686 12.4824 21.6356 12.8431C21.1687 13.566 20.477 14.5279 19.5778 15.487C17.7659 17.4198 15.2004 19.25 12 19.25V20.75C15.7996 20.75 18.7341 18.5802 20.6722 16.513C21.648 15.4721 22.3938 14.434 22.8957 13.6569C23.1471 13.2676 23.3385 12.9419 23.4681 12.7114C23.533 12.5962 23.5824 12.5046 23.6163 12.4406C23.6332 12.4087 23.6462 12.3836 23.6553 12.3659C23.6599 12.357 23.6634 12.35 23.666 12.3449C23.6673 12.3424 23.6684 12.3403 23.6692 12.3387C23.6696 12.3379 23.6699 12.3372 23.6702 12.3367C23.6703 12.3364 23.6705 12.3361 23.6705 12.336C23.6707 12.3357 23.6708 12.3354 23 12ZM12 19.25C8.79963 19.25 6.23414 17.4198 4.42215 15.487C3.523 14.5279 2.83126 13.566 2.3644 12.8431C2.13144 12.4824 1.9557 12.1831 1.83923 11.9761C1.78102 11.8726 1.73771 11.7923 1.70954 11.7391C1.69546 11.7124 1.68517 11.6926 1.6787 11.68C1.67547 11.6737 1.67319 11.6693 1.67188 11.6667C1.67122 11.6654 1.6708 11.6646 1.67063 11.6642C1.67054 11.664 1.67051 11.664 1.67054 11.664C1.67056 11.6641 1.67063 11.6642 1.67064 11.6642C1.67072 11.6644 1.67082 11.6646 1 12C0.32918 12.3354 0.32931 12.3357 0.329455 12.336C0.329524 12.3361 0.329685 12.3364 0.329823 12.3367C0.3301 12.3372 0.330438 12.3379 0.330837 12.3387C0.331636 12.3403 0.332682 12.3424 0.333974 12.3449C0.336558 12.35 0.340126 12.357 0.344675 12.3659C0.353774 12.3836 0.3668 12.4087 0.383723 12.4406C0.417564 12.5046 0.467023 12.5962 0.531865 12.7114C0.661492 12.9419 0.852934 13.2676 1.10435 13.6569C1.60624 14.434 2.352 15.4721 3.32785 16.513C5.26586 18.5802 8.20037 20.75 12 20.75V19.25ZM14.25 12C14.25 13.2426 13.2426 14.25 12 14.25V15.75C14.0711 15.75 15.75 14.0711 15.75 12H14.25ZM12 14.25C10.7574 14.25 9.75 13.2426 9.75 12H8.25C8.25 14.0711 9.92893 15.75 12 15.75V14.25ZM9.75 12C9.75 10.7574 10.7574 9.75 12 9.75V8.25C9.92893 8.25 8.25 9.92893 8.25 12H9.75ZM12 9.75C13.2426 9.75 14.25 10.7574 14.25 12H15.75C15.75 9.92893 14.0711 8.25 12 8.25V9.75Z" fill="#526E88"/>
</svg>
