<svg width="24" height="24" viewBox="0 0 24 24" fill="none" xmlns="http://www.w3.org/2000/svg">
<path d="M20 15L20.5303 15.5303C20.671 15.3897 20.75 15.1989 20.75 15H20ZM20 3H20.75C20.75 2.69665 20.5673 2.42318 20.287 2.30709C20.0068 2.191 19.6842 2.25517 19.4697 2.46967L20 3ZM4 3L3.46967 2.46967C3.32902 2.61032 3.25 2.80109 3.25 3H4ZM3.25 22C3.25 22.4142 3.58579 22.75 4 22.75C4.41421 22.75 4.75 22.4142 4.75 22H3.25ZM4 15C4.53033 15.5303 4.52995 15.5307 4.52956 15.5311C4.52944 15.5312 4.52906 15.5316 4.52882 15.5318C4.52833 15.5323 4.52785 15.5328 4.52739 15.5333C4.52647 15.5342 4.5256 15.535 4.52479 15.5358C4.52317 15.5374 4.52178 15.5387 4.52062 15.5398C4.5183 15.5421 4.5169 15.5433 4.51647 15.5437C4.51559 15.5445 4.51856 15.5418 4.52561 15.536C4.53968 15.5244 4.57021 15.5004 4.61915 15.4678C4.71676 15.4027 4.88946 15.302 5.15354 15.1964C5.68039 14.9856 6.58454 14.75 8 14.75V13.25C6.41546 13.25 5.31961 13.5144 4.59646 13.8036C4.23554 13.948 3.97074 14.0973 3.7871 14.2197C3.69542 14.2808 3.62438 14.335 3.57205 14.3781C3.54589 14.3996 3.52445 14.4184 3.50746 14.4338C3.49897 14.4415 3.49159 14.4484 3.4853 14.4544C3.48216 14.4574 3.47929 14.4602 3.47668 14.4627C3.47538 14.464 3.47414 14.4652 3.47298 14.4664C3.47239 14.467 3.47182 14.4675 3.47127 14.4681C3.471 14.4683 3.4706 14.4687 3.47046 14.4689C3.47006 14.4693 3.46967 14.4697 4 15ZM8 14.75C9.33552 14.75 10.4579 15.1909 11.7215 15.6964C12.9579 16.1909 14.3355 16.75 16 16.75V15.25C14.6645 15.25 13.5421 14.8091 12.2785 14.3036C11.0421 13.8091 9.66448 13.25 8 13.25V14.75ZM16 16.75C17.5845 16.75 18.6804 16.4856 19.4035 16.1964C19.7645 16.052 20.0293 15.9027 20.2129 15.7803C20.3046 15.7192 20.3756 15.665 20.428 15.6219C20.4541 15.6004 20.4756 15.5816 20.4925 15.5662C20.501 15.5585 20.5084 15.5516 20.5147 15.5456C20.5178 15.5426 20.5207 15.5398 20.5233 15.5373C20.5246 15.536 20.5259 15.5348 20.527 15.5336C20.5276 15.533 20.5282 15.5325 20.5287 15.5319C20.529 15.5317 20.5294 15.5313 20.5295 15.5311C20.5299 15.5307 20.5303 15.5303 20 15C19.4697 14.4697 19.4701 14.4693 19.4704 14.4689C19.4706 14.4688 19.4709 14.4684 19.4712 14.4682C19.4717 14.4677 19.4721 14.4672 19.4726 14.4667C19.4735 14.4658 19.4744 14.465 19.4752 14.4642C19.4768 14.4626 19.4782 14.4613 19.4794 14.4602C19.4817 14.4579 19.4831 14.4567 19.4835 14.4563C19.4844 14.4555 19.4814 14.4582 19.4744 14.464C19.4603 14.4756 19.4298 14.4996 19.3808 14.5322C19.2832 14.5973 19.1105 14.698 18.8465 14.8036C18.3196 15.0144 17.4155 15.25 16 15.25V16.75ZM20.75 15V3H19.25V15H20.75ZM20 3C19.4697 2.46967 19.4701 2.46929 19.4704 2.4689C19.4706 2.46878 19.4709 2.46841 19.4712 2.46816C19.4717 2.46768 19.4721 2.4672 19.4726 2.46675C19.4735 2.46584 19.4744 2.46498 19.4752 2.46419C19.4768 2.46261 19.4782 2.46127 19.4794 2.46016C19.4817 2.45795 19.4831 2.45667 19.4835 2.45628C19.4844 2.45548 19.4814 2.45822 19.4744 2.46402C19.4603 2.47561 19.4298 2.49958 19.3808 2.53221C19.2832 2.59729 19.1105 2.69801 18.8465 2.80364C18.3196 3.01438 17.4155 3.25 16 3.25V4.75C17.5845 4.75 18.6804 4.48562 19.4035 4.19636C19.7645 4.05199 20.0293 3.90271 20.2129 3.78029C20.3046 3.71917 20.3756 3.66501 20.428 3.62192C20.4541 3.60038 20.4756 3.58163 20.4925 3.56619C20.501 3.55846 20.5084 3.55157 20.5147 3.54557C20.5178 3.54258 20.5207 3.5398 20.5233 3.53726C20.5246 3.53599 20.5259 3.53477 20.527 3.53362C20.5276 3.53304 20.5282 3.53248 20.5287 3.53193C20.529 3.53165 20.5294 3.53126 20.5295 3.53112C20.5299 3.53072 20.5303 3.53033 20 3ZM16 3.25C14.6645 3.25 13.5421 2.80907 12.2785 2.30364C11.0421 1.80907 9.66448 1.25 8 1.25V2.75C9.33552 2.75 10.4579 3.19093 11.7215 3.69636C12.9579 4.19093 14.3355 4.75 16 4.75V3.25ZM8 1.25C6.41546 1.25 5.31961 1.51438 4.59646 1.80364C4.23554 1.94801 3.97074 2.09729 3.7871 2.21971C3.69542 2.28083 3.62438 2.33499 3.57205 2.37808C3.54589 2.39962 3.52445 2.41837 3.50746 2.43381C3.49897 2.44154 3.49159 2.44843 3.4853 2.45443C3.48216 2.45742 3.47929 2.4602 3.47668 2.46274C3.47538 2.46401 3.47414 2.46523 3.47298 2.46638C3.47239 2.46696 3.47182 2.46752 3.47127 2.46807C3.471 2.46835 3.4706 2.46874 3.47046 2.46888C3.47006 2.46928 3.46967 2.46967 4 3C4.53033 3.53033 4.52995 3.53071 4.52956 3.5311C4.52944 3.53122 4.52906 3.53159 4.52882 3.53184C4.52833 3.53232 4.52785 3.5328 4.52739 3.53325C4.52647 3.53416 4.5256 3.53502 4.52479 3.53581C4.52317 3.53739 4.52178 3.53873 4.52062 3.53984C4.5183 3.54205 4.5169 3.54333 4.51647 3.54372C4.51559 3.54452 4.51856 3.54178 4.52561 3.53598C4.53968 3.52439 4.57021 3.50042 4.61915 3.46779C4.71676 3.40271 4.88946 3.30199 5.15354 3.19636C5.68039 2.98562 6.58454 2.75 8 2.75V1.25ZM3.25 3V15H4.75V3H3.25ZM4.75 22V15H3.25V22H4.75Z" fill="#526E88"/>
</svg>
