<svg width="1878" height="901" viewBox="0 0 1878 901" fill="none" xmlns="http://www.w3.org/2000/svg">
<g opacity="0.5">
<rect x="36" y="-135" width="1" height="1040" fill="#D1DCE7"/>
<rect x="137" y="-135" width="1" height="1040" fill="#D1DCE7"/>
<rect x="238" y="-135" width="1" height="1040" fill="#D1DCE7"/>
<rect x="339" y="-135" width="1" height="1040" fill="#D1DCE7"/>
<rect x="440" y="-135" width="1" height="1040" fill="#D1DCE7"/>
<rect x="541" y="-135" width="1" height="1040" fill="#D1DCE7"/>
<rect x="642" y="-135" width="1" height="1040" fill="#D1DCE7"/>
<rect x="743" y="-135" width="1" height="1040" fill="#D1DCE7"/>
<rect x="844" y="-135" width="1" height="1040" fill="#D1DCE7"/>
<rect x="945" y="-135" width="1" height="1040" fill="#D1DCE7"/>
<rect x="1046" y="-135" width="1" height="1040" fill="#D1DCE7"/>
<rect x="1147" y="-135" width="1" height="1040" fill="#D1DCE7"/>
<rect x="1248" y="-135" width="1" height="1040" fill="#D1DCE7"/>
<rect x="1349" y="-135" width="1" height="1040" fill="#D1DCE7"/>
<rect x="1450" y="-135" width="1" height="1040" fill="#D1DCE7"/>
<rect x="1551" y="-135" width="1" height="1040" fill="#D1DCE7"/>
</g>
<g opacity="0.5">
<rect x="-99" y="888" width="1" height="1977" transform="rotate(-90 -99 888)" fill="#D1DCE7"/>
<rect x="-99" y="787" width="1" height="1977" transform="rotate(-90 -99 787)" fill="#D1DCE7"/>
<rect x="-99" y="686" width="1" height="1977" transform="rotate(-90 -99 686)" fill="#D1DCE7"/>
<rect x="-99" y="585" width="1" height="1977" transform="rotate(-90 -99 585)" fill="#D1DCE7"/>
<rect x="-99" y="484" width="1" height="1977" transform="rotate(-90 -99 484)" fill="#D1DCE7"/>
<rect x="-99" y="383" width="1" height="1977" transform="rotate(-90 -99 383)" fill="#D1DCE7"/>
<rect x="-99" y="282" width="1" height="1977" transform="rotate(-90 -99 282)" fill="#D1DCE7"/>
<rect x="-99" y="181" width="1" height="1977" transform="rotate(-90 -99 181)" fill="#D1DCE7"/>
<rect x="-99" y="80" width="1" height="1977" transform="rotate(-90 -99 80)" fill="#D1DCE7"/>
</g>
</svg>
