<svg width="166" height="183" viewBox="0 0 166 183" fill="none" xmlns="http://www.w3.org/2000/svg">
<circle cx="82.25" cy="74.25" r="62.25" fill="#E5F1FA"/>
<rect x="57.9527" y="73.1159" width="60.6853" height="85.063" rx="7" transform="rotate(2.5 57.9527 73.1159)" fill="#D1DCE7" stroke="#95A7B8" stroke-width="2"/>
<rect x="21.4532" y="67.766" width="64.6853" height="89.063" rx="9" transform="rotate(-7.5 21.4532 67.766)" fill="#FAFAFA" stroke="#95A7B8" stroke-width="2"/>
<path d="M23.6194 76.5585C23.0427 72.178 26.1263 68.1594 30.5068 67.5827L76.7927 61.4891C81.1731 60.9124 85.1917 63.996 85.7684 68.3764L87.338 80.298L25.1889 88.4801L23.6194 76.5585Z" fill="#D1DCE7"/>
<rect x="98.2402" y="63.0566" width="2.61189" height="8.7063" rx="1.30594" transform="rotate(82.5 98.2402 63.0566)" fill="#0072CE"/>
<rect x="74.3879" y="48.6338" width="2.61189" height="8.7063" rx="1.30594" transform="rotate(-7.5 74.3879 48.6338)" fill="#0072CE"/>
<rect x="89.6914" y="51.0098" width="2.61189" height="8.7063" rx="1.30594" transform="rotate(37.5 89.6914 51.0098)" fill="#0072CE"/>
<rect x="31.6858" y="91.1377" width="50.4965" height="3.48252" rx="1.74126" transform="rotate(-7.5 31.6858 91.1377)" fill="#95A7B8"/>
<rect x="33.9585" y="108.401" width="50.4965" height="3.48252" rx="1.74126" transform="rotate(-7.5 33.9585 108.401)" fill="#95A7B8"/>
<rect x="36.2314" y="125.665" width="50.4965" height="3.48252" rx="1.74126" transform="rotate(-7.5 36.2314 125.665)" fill="#95A7B8"/>
<rect x="32.595" y="98.043" width="18.2832" height="3.48252" rx="1.74126" transform="rotate(-7.5 32.595 98.043)" fill="#D1DCE7"/>
<rect x="34.8677" y="115.307" width="18.2832" height="3.48252" rx="1.74126" transform="rotate(-7.5 34.8677 115.307)" fill="#D1DCE7"/>
<rect x="37.1404" y="132.57" width="18.2832" height="3.48252" rx="1.74126" transform="rotate(-7.5 37.1404 132.57)" fill="#D1DCE7"/>
</svg>
