<svg width="24" height="24" viewBox="0 0 24 24" fill="none" xmlns="http://www.w3.org/2000/svg">
<path d="M2 4.21378V3.46378C1.58579 3.46378 1.25 3.79956 1.25 4.21378H2ZM6.44444 4.96378C6.85866 4.96378 7.19444 4.62799 7.19444 4.21378C7.19444 3.79956 6.85866 3.46378 6.44444 3.46378V4.96378ZM1.25 8.65822C1.25 9.07243 1.58579 9.40822 2 9.40822C2.41421 9.40822 2.75 9.07243 2.75 8.65822H1.25ZM17.5556 3.46378C17.1414 3.46378 16.8056 3.79956 16.8056 4.21378C16.8056 4.62799 17.1414 4.96378 17.5556 4.96378V3.46378ZM22.0001 4.21378H22.7501C22.7501 3.79956 22.4143 3.46378 22.0001 3.46378V4.21378ZM21.2501 8.65822C21.2501 9.07243 21.5858 9.40822 22.0001 9.40822C22.4143 9.40822 22.7501 9.07243 22.7501 8.65822H21.2501ZM6.44442 20.6904C6.85863 20.6904 7.19442 20.3546 7.19442 19.9404C7.19442 19.5261 6.85863 19.1904 6.44442 19.1904V20.6904ZM2 19.9404H1.25C1.25 20.3546 1.58579 20.6904 2 20.6904V19.9404ZM2.75 15.325C2.75 14.9108 2.41421 14.575 2 14.575C1.58579 14.575 1.25 14.9108 1.25 15.325H2.75ZM22.0001 19.7694V20.5194C22.4143 20.5194 22.7501 20.1837 22.7501 19.7694H22.0001ZM17.5556 19.0194C17.1414 19.0194 16.8056 19.3552 16.8056 19.7694C16.8056 20.1837 17.1414 20.5194 17.5556 20.5194V19.0194ZM22.7501 15.325C22.7501 14.9108 22.4143 14.575 22.0001 14.575C21.5858 14.575 21.2501 14.9108 21.2501 15.325H22.7501ZM2 4.96378H6.44444V3.46378H2V4.96378ZM2.75 8.65822V4.21378H1.25V8.65822H2.75ZM17.5556 4.96378H22.0001V3.46378H17.5556V4.96378ZM21.2501 4.21378V8.65822H22.7501V4.21378H21.2501ZM6.44442 19.1904H2V20.6904H6.44442V19.1904ZM2.75 19.9404V15.325H1.25V19.9404H2.75ZM22.0001 19.0194H17.5556V20.5194H22.0001V19.0194ZM21.2501 15.325V19.7694H22.7501V15.325H21.2501Z" fill="#526E88"/>
</svg>
