<svg width="108" height="42" viewBox="0 0 108 42" fill="none" xmlns="http://www.w3.org/2000/svg">
<path fill-rule="evenodd" clip-rule="evenodd" d="M49.1893 30.5211H52.0439V12.0044H49.1893V10.1753H64.612V14.7808H62.6257V12.0675H54.2164V20.2382H62.4713V22.1304H54.2164V30.4596H63.2162V27.5877H65.1707V32.3518H49.1893V30.5211ZM81.7125 22.9506L78.4544 13.865C78.2061 13.1393 78.113 12.4452 78.113 12.4452H78.0199C78.0199 12.4452 77.9579 13.1393 77.7096 13.865L74.3895 22.9506H81.7125ZM67.2829 30.5202H69.5168L76.8716 10.1744H79.2614L86.6162 30.5202H88.85V32.3509H81.8676V30.5202H84.3816L82.303 24.8104H73.7998L71.7514 30.5202H74.2653V32.3509H67.2829V30.5202ZM103.376 30.1117C102.693 30.3956 101.794 30.4587 101.111 30.4587H95.8974V21.6886H101.452C103.996 21.6886 105.765 23.3915 105.765 26.0741C105.765 27.9663 104.866 29.4807 103.376 30.1117ZM104.897 15.9157C104.897 18.2496 103.407 19.7956 101.204 19.7956H95.8974V12.0674H100.707C101.762 12.0674 102.631 12.2252 103.313 12.6345C104.307 13.2655 104.897 14.4644 104.897 15.9157ZM93.7248 30.5202H90.8703V32.3509H101.049C102.228 32.3509 103.313 32.2554 104.307 31.8777C106.448 31.0574 108 28.8488 108 26.1048C108 23.4546 106.572 21.31 104.338 20.6474V20.5843C106.014 19.7325 107.131 18.0603 107.131 15.7895C107.131 13.4864 106.014 11.6888 104.463 10.9308C103.438 10.3944 102.228 10.1744 100.707 10.1744H90.8703V12.0035H93.7248V30.5202Z" fill="white"/>
<path d="M41.3145 20.9983C41.3145 32.598 32.0672 42 20.6597 42C9.25214 42 0 32.598 0 20.9983C0 9.40197 9.25214 -4.34953e-07 20.6597 -4.34953e-07C32.0672 -4.34953e-07 41.3145 9.40197 41.3145 20.9983Z" fill="#0072CE"/>
<path fill-rule="evenodd" clip-rule="evenodd" d="M10.765 32.4832H30.5466V30.8309H10.765V32.4832ZM20.6401 14.8202L10.7696 19.2372V17.4131L20.6401 12.9944L30.5423 17.4131V19.2372L20.6401 14.8202ZM20.6427 8.19545C25.0041 8.19545 29.1769 11.2293 30.5466 15.3208L28.129 14.2357C26.8165 12.1135 24.2135 9.94483 20.6427 9.94483C17.6615 9.94483 14.838 11.5605 13.1931 14.1775L10.7649 15.2428C12.1624 11.1969 16.3294 8.19545 20.6427 8.19545ZM24.608 28.6925H22.6143V21.0483H24.608V28.6925ZM16.6908 28.6925H18.6845V21.0483H16.6908V28.6925ZM12.7561 28.6925H10.7649V21.0483H12.7561V28.6925ZM28.545 28.6925H30.5387V21.0483H28.545V28.6925Z" fill="white"/>
</svg>
