<svg width="24" height="24" viewBox="0 0 24 24" fill="none" xmlns="http://www.w3.org/2000/svg">
<path d="M5.25 21C5.25 21.4142 5.58579 21.75 6 21.75C6.41421 21.75 6.75 21.4142 6.75 21H5.25ZM20.25 18C20.25 19.2426 19.2426 20.25 18 20.25V21.75C20.0711 21.75 21.75 20.0711 21.75 18H20.25ZM18 20.25C16.7574 20.25 15.75 19.2426 15.75 18H14.25C14.25 20.0711 15.9289 21.75 18 21.75V20.25ZM15.75 18C15.75 16.7574 16.7574 15.75 18 15.75V14.25C15.9289 14.25 14.25 15.9289 14.25 18H15.75ZM18 15.75C19.2426 15.75 20.25 16.7574 20.25 18H21.75C21.75 15.9289 20.0711 14.25 18 14.25V15.75ZM8.25 6C8.25 7.24264 7.24264 8.25 6 8.25V9.75C8.07107 9.75 9.75 8.07107 9.75 6H8.25ZM6 8.25C4.75736 8.25 3.75 7.24264 3.75 6H2.25C2.25 8.07107 3.92893 9.75 6 9.75V8.25ZM3.75 6C3.75 4.75736 4.75736 3.75 6 3.75V2.25C3.92893 2.25 2.25 3.92893 2.25 6H3.75ZM6 3.75C7.24264 3.75 8.25 4.75736 8.25 6H9.75C9.75 3.92893 8.07107 2.25 6 2.25V3.75ZM6.75 21V9H5.25V21H6.75ZM5.25 9C5.25 11.5859 6.27723 14.0658 8.10571 15.8943L9.16637 14.8336C7.61919 13.2865 6.75 11.188 6.75 9H5.25ZM8.10571 15.8943C9.93419 17.7228 12.4141 18.75 15 18.75V17.25C12.812 17.25 10.7135 16.3808 9.16637 14.8336L8.10571 15.8943Z" fill="#526E88"/>
</svg>
