<svg width="85" height="32" viewBox="0 0 85 32" fill="none" xmlns="http://www.w3.org/2000/svg">
<path fill-rule="evenodd" clip-rule="evenodd" d="M38.2598 23.2536H40.48V9.14565H38.2598V7.75206H50.2556V11.261H48.7106V9.19373H42.1699V15.419H48.5906V16.8607H42.1699V23.2068H49.1699V21.0187H50.6901V24.6484H38.2598V23.2536ZM63.5564 17.4856L61.0223 10.5632C60.8292 10.0103 60.7568 9.48151 60.7568 9.48151H60.6844C60.6844 9.48151 60.6361 10.0103 60.443 10.5632L57.8606 17.4856H63.5564ZM52.3331 23.2529H54.0706L59.7912 7.75138H61.65L67.3706 23.2529H69.1081V24.6478H63.6771V23.2529H65.6325L64.0157 18.9026H57.4019L55.8087 23.2529H57.764V24.6478H52.3331V23.2529ZM80.4061 22.9417C79.875 23.158 79.1756 23.2061 78.6445 23.2061H74.5896V16.5241H78.9101C80.8889 16.5241 82.2649 17.8215 82.2649 19.8654C82.2649 21.3071 81.5655 22.4609 80.4061 22.9417ZM81.5897 12.1257C81.5897 13.9039 80.4309 15.0818 78.7169 15.0818H74.5896V9.19368H78.3307C79.1515 9.19368 79.8268 9.31387 80.3579 9.62574C81.1303 10.1065 81.5897 11.02 81.5897 12.1257ZM72.8998 23.2529H70.6795V24.6478H78.5962C79.5136 24.6478 80.3579 24.575 81.1303 24.2872C82.796 23.6622 84.0031 21.9795 84.0031 19.8888C84.0031 17.8696 82.8926 16.2356 81.1545 15.7308V15.6827C82.4581 15.0337 83.3271 13.7597 83.3271 12.0296C83.3271 10.2748 82.4581 8.90522 81.2517 8.32767C80.4551 7.91902 79.5136 7.75138 78.3307 7.75138H70.6795V9.14497H72.8998V23.2529Z" fill="#333F48"/>
<path d="M32.1346 15.9987C32.1346 24.8366 24.9421 32 16.0692 32C7.19637 32 0 24.8366 0 15.9987C0 7.1634 7.19637 0 16.0692 0C24.9421 0 32.1346 7.1634 32.1346 15.9987Z" fill="#026ABD"/>
<path fill-rule="evenodd" clip-rule="evenodd" d="M8.3731 24.749H23.7594V23.4902H8.3731V24.749ZM16.054 11.2915L8.37674 14.6569V13.2671L16.054 9.90044L23.7561 13.2671V14.6569L16.054 11.2915ZM16.056 6.2441C19.4484 6.2441 22.694 8.55557 23.7594 11.673L21.8789 10.8462C20.8581 9.22928 18.8334 7.57696 16.056 7.57696C13.7373 7.57696 11.5412 8.80798 10.2617 10.8019L8.37305 11.6135C9.46 8.5309 12.7012 6.2441 16.056 6.2441ZM19.1403 21.8609H17.5896V16.0367H19.1403V21.8609ZM12.9823 21.8609H14.533V16.0367H12.9823V21.8609ZM9.92184 21.8609H8.37305V16.0367H9.92184V21.8609ZM22.2025 21.8609H23.7532V16.0367H22.2025V21.8609Z" fill="white"/>
</svg>
