<svg width="24" height="24" viewBox="0 0 24 24" fill="none" xmlns="http://www.w3.org/2000/svg">
<path d="M12 2L15.09 8.26L22 9.27L17 14.14L18.18 21.02L12 17.77L5.82 21.02L7 14.14L2 9.27L8.91 8.26L12 2Z" fill="#ED8B00"/>
<path d="M12 2L12.6725 1.66803C12.5462 1.41205 12.2855 1.25 12 1.25C11.7145 1.25 11.4538 1.41205 11.3275 1.66803L12 2ZM15.09 8.26L14.4175 8.59197C14.5266 8.8131 14.7375 8.96645 14.9815 9.00211L15.09 8.26ZM22 9.27L22.5233 9.80727C22.7278 9.60812 22.8015 9.31018 22.7134 9.03868C22.6254 8.76717 22.3909 8.56917 22.1085 8.52789L22 9.27ZM17 14.14L16.4767 13.6027C16.2998 13.775 16.219 14.0234 16.2608 14.2668L17 14.14ZM18.18 21.02L17.8309 21.6838C18.0836 21.8167 18.3898 21.7946 18.6208 21.6268C18.8518 21.459 18.9675 21.1746 18.9192 20.8932L18.18 21.02ZM12 17.77L12.3491 17.1062C12.1306 16.9913 11.8694 16.9913 11.6509 17.1062L12 17.77ZM5.82 21.02L5.08079 20.8932C5.03253 21.1746 5.14822 21.459 5.3792 21.6268C5.61018 21.7946 5.9164 21.8167 6.16909 21.6838L5.82 21.02ZM7 14.14L7.73921 14.2668C7.78095 14.0234 7.7002 13.775 7.5233 13.6027L7 14.14ZM2 9.27L1.89153 8.52789C1.60911 8.56917 1.3746 8.76717 1.28657 9.03868C1.19853 9.31018 1.27224 9.60812 1.4767 9.80727L2 9.27ZM8.91 8.26L9.01847 9.00211C9.26249 8.96645 9.47338 8.8131 9.58253 8.59197L8.91 8.26ZM11.3275 2.33197L14.4175 8.59197L15.7625 7.92803L12.6725 1.66803L11.3275 2.33197ZM14.9815 9.00211L21.8915 10.0121L22.1085 8.52789L15.1985 7.51789L14.9815 9.00211ZM21.4767 8.73273L16.4767 13.6027L17.5233 14.6773L22.5233 9.80727L21.4767 8.73273ZM16.2608 14.2668L17.4408 21.1468L18.9192 20.8932L17.7392 14.0132L16.2608 14.2668ZM18.5291 20.3562L12.3491 17.1062L11.6509 18.4338L17.8309 21.6838L18.5291 20.3562ZM11.6509 17.1062L5.47091 20.3562L6.16909 21.6838L12.3491 18.4338L11.6509 17.1062ZM6.55921 21.1468L7.73921 14.2668L6.26079 14.0132L5.08079 20.8932L6.55921 21.1468ZM7.5233 13.6027L2.5233 8.73273L1.4767 9.80727L6.4767 14.6773L7.5233 13.6027ZM2.10847 10.0121L9.01847 9.00211L8.80153 7.51789L1.89153 8.52789L2.10847 10.0121ZM9.58253 8.59197L12.6725 2.33197L11.3275 1.66803L8.23747 7.92803L9.58253 8.59197Z" fill="#ED8B00"/>
</svg>
