<svg width="24" height="24" viewBox="0 0 24 24" fill="none" xmlns="http://www.w3.org/2000/svg">
<path d="M12 1V0.25V1ZM19.75 10C19.75 9.58579 19.4142 9.25 19 9.25C18.5858 9.25 18.25 9.58579 18.25 10H19.75ZM19 12H19.75H19ZM12 19V18.25V19ZM5 12H4.25H5ZM5.75 10C5.75 9.58579 5.41421 9.25 5 9.25C4.58579 9.25 4.25 9.58579 4.25 10H5.75ZM11.25 23C11.25 23.4142 11.5858 23.75 12 23.75C12.4142 23.75 12.75 23.4142 12.75 23H11.25ZM8 22.25C7.58579 22.25 7.25 22.5858 7.25 23C7.25 23.4142 7.58579 23.75 8 23.75V22.25ZM16 23.75C16.4142 23.75 16.75 23.4142 16.75 23C16.75 22.5858 16.4142 22.25 16 22.25V23.75ZM12 0.25C11.0054 0.25 10.0516 0.645088 9.34835 1.34835L10.409 2.40901C10.831 1.98705 11.4033 1.75 12 1.75V0.25ZM9.34835 1.34835C8.64509 2.05161 8.25 3.00544 8.25 4H9.75C9.75 3.40326 9.98705 2.83097 10.409 2.40901L9.34835 1.34835ZM8.25 4V12H9.75V4H8.25ZM8.25 12C8.25 12.9946 8.64509 13.9484 9.34835 14.6517L10.409 13.591C9.98705 13.169 9.75 12.5967 9.75 12H8.25ZM9.34835 14.6517C10.0516 15.3549 11.0054 15.75 12 15.75V14.25C11.4033 14.25 10.831 14.0129 10.409 13.591L9.34835 14.6517ZM12 15.75C12.9946 15.75 13.9484 15.3549 14.6517 14.6517L13.591 13.591C13.169 14.0129 12.5967 14.25 12 14.25V15.75ZM14.6517 14.6517C15.3549 13.9484 15.75 12.9946 15.75 12H14.25C14.25 12.5967 14.0129 13.169 13.591 13.591L14.6517 14.6517ZM15.75 12V4H14.25V12H15.75ZM15.75 4C15.75 3.00544 15.3549 2.05161 14.6517 1.34835L13.591 2.40901C14.0129 2.83097 14.25 3.40326 14.25 4H15.75ZM14.6517 1.34835C13.9484 0.645088 12.9946 0.25 12 0.25V1.75C12.5967 1.75 13.169 1.98705 13.591 2.40901L14.6517 1.34835ZM18.25 10V12H19.75V10H18.25ZM18.25 12C18.25 13.6576 17.5915 15.2473 16.4194 16.4194L17.4801 17.4801C18.9335 16.0267 19.75 14.0554 19.75 12H18.25ZM16.4194 16.4194C15.2473 17.5915 13.6576 18.25 12 18.25V19.75C14.0554 19.75 16.0267 18.9335 17.4801 17.4801L16.4194 16.4194ZM12 18.25C10.3424 18.25 8.75268 17.5915 7.58058 16.4194L6.51992 17.4801C7.97333 18.9335 9.94457 19.75 12 19.75V18.25ZM7.58058 16.4194C6.40848 15.2473 5.75 13.6576 5.75 12H4.25C4.25 14.0554 5.06652 16.0267 6.51992 17.4801L7.58058 16.4194ZM5.75 12V10H4.25V12H5.75ZM11.25 19V23H12.75V19H11.25ZM8 23.75H16V22.25H8V23.75Z" fill="white"/>
</svg>
