<svg width="24" height="24" viewBox="0 0 24 24" fill="none" xmlns="http://www.w3.org/2000/svg">
<path d="M8.00019 22.2501C7.58597 22.2501 7.25019 22.5859 7.25019 23.0001C7.25019 23.4143 7.58597 23.7501 8.00019 23.7501V22.2501ZM16.0002 23.7501C16.4144 23.7501 16.7502 23.4143 16.7502 23.0001C16.7502 22.5859 16.4144 22.2501 16.0002 22.2501V23.7501ZM9.00019 9.00009L9.53052 8.46976C9.31602 8.25526 8.99343 8.1911 8.71317 8.30718C8.43292 8.42327 8.25019 8.69675 8.25019 9.00009H9.00019ZM9.00019 12.0001H8.25019L8.25019 12.0008L9.00019 12.0001ZM14.1202 14.1201L14.6502 14.6508C14.791 14.5101 14.8701 14.3193 14.8702 14.1203C14.8702 13.9213 14.7912 13.7305 14.6505 13.5898L14.1202 14.1201ZM14.2502 9.34009C14.2502 9.75431 14.586 10.0901 15.0002 10.0901C15.4144 10.0901 15.7502 9.75431 15.7502 9.34009H14.2502ZM15.0002 4.00009L14.2502 3.99934V4.00009H15.0002ZM8.32519 3.25085C8.24276 3.65678 8.50501 4.05267 8.91094 4.13509C9.31687 4.21752 9.71276 3.95527 9.79519 3.54934L8.32519 3.25085ZM17.5359 17.475C17.8258 17.1791 17.8209 16.7042 17.5251 16.4144C17.2292 16.1245 16.7543 16.1293 16.4645 16.4252L17.5359 17.475ZM5.00019 12.0001L5.75019 12.0056V12.0001H5.00019ZM5.75019 10.0001C5.75019 9.58588 5.4144 9.25009 5.00019 9.25009C4.58597 9.25009 4.25019 9.58588 4.25019 10.0001H5.75019ZM19.7502 10.0001C19.7502 9.58588 19.4144 9.25009 19.0002 9.25009C18.586 9.25009 18.2502 9.58588 18.2502 10.0001H19.7502ZM19.0002 12.0001L19.7502 12.0007V12.0001H19.0002ZM18.152 13.0977C18.0788 13.5054 18.35 13.8952 18.7577 13.9683C19.1655 14.0415 19.5553 13.7702 19.6284 13.3625L18.152 13.0977ZM12.7502 19.0001C12.7502 18.5859 12.4144 18.2501 12.0002 18.2501C11.586 18.2501 11.2502 18.5859 11.2502 19.0001H12.7502ZM11.2502 23.0001C11.2502 23.4143 11.586 23.7501 12.0002 23.7501C12.4144 23.7501 12.7502 23.4143 12.7502 23.0001H11.2502ZM8.00019 23.7501H16.0002V22.2501H8.00019V23.7501ZM8.25019 9.00009V12.0001H9.75019V9.00009H8.25019ZM8.25019 12.0008C8.25084 12.742 8.47113 13.4663 8.88323 14.0824L10.13 13.2484C9.88275 12.8788 9.75058 12.4442 9.75019 11.9994L8.25019 12.0008ZM8.88323 14.0824C9.29533 14.6985 9.88075 15.1786 10.5656 15.4622L11.1394 14.0763C10.7285 13.9062 10.3773 13.6181 10.13 13.2484L8.88323 14.0824ZM10.5656 15.4622C11.2504 15.7457 12.0039 15.82 12.7309 15.6756L12.4386 14.2043C12.0024 14.291 11.5503 14.2464 11.1394 14.0763L10.5656 15.4622ZM12.7309 15.6756C13.4579 15.5312 14.1258 15.1745 14.6502 14.6508L13.5902 13.5894C13.2755 13.9037 12.8748 14.1177 12.4386 14.2043L12.7309 15.6756ZM14.6505 13.5898L9.53052 8.46976L8.46986 9.53042L13.5899 14.6504L14.6505 13.5898ZM15.7502 9.34009V4.00009H14.2502V9.34009H15.7502ZM15.7502 4.00085C15.7511 3.07088 15.4065 2.17375 14.7832 1.4836L13.67 2.48899C14.044 2.90308 14.2507 3.44136 14.2502 3.99934L15.7502 4.00085ZM14.7832 1.4836C14.1598 0.793446 13.3023 0.359523 12.3771 0.266063L12.2263 1.75847C12.7815 1.81454 13.296 2.0749 13.67 2.48899L14.7832 1.4836ZM12.3771 0.266063C11.4518 0.172602 10.5248 0.426274 9.77608 0.977831L10.6657 2.18553C11.115 1.85459 11.6712 1.70239 12.2263 1.75847L12.3771 0.266063ZM9.77608 0.977831C9.02734 1.52939 8.51025 2.33948 8.32519 3.25085L9.79519 3.54934C9.90622 3.00252 10.2165 2.51646 10.6657 2.18553L9.77608 0.977831ZM16.4645 16.4252C15.5928 17.3149 14.4753 17.9238 13.2552 18.174L13.5564 19.6434C15.0693 19.3333 16.4551 18.5781 17.5359 17.475L16.4645 16.4252ZM13.2552 18.174C12.0351 18.4241 10.7681 18.304 9.61668 17.829L9.04468 19.2157C10.4724 19.8046 12.0435 19.9536 13.5564 19.6434L13.2552 18.174ZM9.61668 17.829C8.46531 17.3541 7.4821 16.546 6.79318 15.5084L5.54354 16.3381C6.3978 17.6247 7.61699 18.6268 9.04468 19.2157L9.61668 17.829ZM6.79318 15.5084C6.10426 14.4708 5.74106 13.251 5.75017 12.0056L4.25021 11.9946C4.23891 13.539 4.68928 15.0515 5.54354 16.3381L6.79318 15.5084ZM5.75019 12.0001V10.0001H4.25019V12.0001H5.75019ZM18.2502 10.0001V12.0001H19.7502V10.0001H18.2502ZM18.2502 11.9994C18.2499 12.3677 18.217 12.7352 18.152 13.0977L19.6284 13.3625C19.709 12.9131 19.7498 12.4574 19.7502 12.0007L18.2502 11.9994ZM11.2502 19.0001V23.0001H12.7502V19.0001H11.2502Z" fill="white"/>
<path d="M1 1L23 23" stroke="#F45A67" stroke-width="1.5" stroke-linecap="round" stroke-linejoin="round"/>
</svg>
