<svg width="24" height="24" viewBox="0 0 24 24" fill="none" xmlns="http://www.w3.org/2000/svg">
<path d="M11.9998 14C13.1043 14 13.9998 13.1046 13.9998 12C13.9998 10.8954 13.1043 10 11.9998 10C10.8952 10 9.99976 10.8954 9.99976 12C9.99976 13.1046 10.8952 14 11.9998 14Z" fill="#526E88"/>
<path d="M19.9998 14C21.1043 14 21.9998 13.1046 21.9998 12C21.9998 10.8954 21.1043 10 19.9998 10C18.8952 10 17.9998 10.8954 17.9998 12C17.9998 13.1046 18.8952 14 19.9998 14Z" fill="#526E88"/>
<path d="M3.99976 14C5.10433 14 5.99976 13.1046 5.99976 12C5.99976 10.8954 5.10433 10 3.99976 10C2.89519 10 1.99976 10.8954 1.99976 12C1.99976 13.1046 2.89519 14 3.99976 14Z" fill="#526E88"/>
</svg>
