<svg width="80" height="80" viewBox="0 0 80 80" fill="none" xmlns="http://www.w3.org/2000/svg">
<path d="M41.6667 0C40.7462 0 40 0.745452 40 1.66494V38.2925C40 39.2119 40.7462 39.9574 41.6667 39.9574H78.3332C79.2537 39.9574 79.9999 39.2119 79.9999 38.2925C79.9759 17.154 62.8275 0.0238807 41.6667 0Z" fill="#95A7B8"/>
<path d="M59.6496 70.5671L36.6665 41.0522V4.99404C36.6665 4.07455 35.9202 3.3291 34.9998 3.3291C15.6999 3.3291 0 20.5074 0 41.6214C0.0239061 62.7598 17.1722 79.8899 38.333 79.9138C46.0163 80.5102 53.6134 77.9706 59.3896 72.8746C60.0876 72.3028 60.2029 71.2798 59.6496 70.5671Z" fill="#526E88"/>
<path d="M78.3313 43.2871H44.9983C44.0778 43.2873 43.3317 44.0329 43.332 44.9524C43.332 45.3327 43.4625 45.7016 43.7017 45.9975L65.3683 72.7921C65.6589 73.1523 66.0864 73.3754 66.5483 73.4082H66.665C67.0867 73.4085 67.493 73.249 67.8017 72.9619C75.5657 65.7089 79.9802 55.5707 79.9984 44.9519C79.9981 44.0326 79.252 43.2871 78.3313 43.2871Z" fill="#D1DCE7"/>
</svg>
