<svg width="100" height="63" viewBox="0 0 100 63" fill="none" xmlns="http://www.w3.org/2000/svg">
<rect x="0.5" y="0.5" width="99" height="62" rx="5.5" fill="#F5F7FA"/>
<path d="M8 8C8 6.89543 8.89543 6 10 6H17C18.1046 6 19 6.89543 19 8V55C19 56.1046 18.1046 57 17 57H10C8.89543 57 8 56.1046 8 55V8Z" fill="#0072CE" fill-opacity="0.1"/>
<path d="M79 8C79 6.89543 79.8954 6 81 6H90C91.1046 6 92 6.89543 92 8V16C92 17.1046 91.1046 18 90 18H81C79.8954 18 79 17.1046 79 16V8Z" fill="#0072CE" fill-opacity="0.1"/>
<path d="M79 22C79 20.8954 79.8954 20 81 20H90C91.1046 20 92 20.8954 92 22V55C92 56.1046 91.1046 57 90 57H81C79.8954 57 79 56.1046 79 55V22Z" fill="#0072CE" fill-opacity="0.1"/>
<path d="M21 8C21 6.89543 21.8954 6 23 6H75C76.1046 6 77 6.89543 77 8V55C77 56.1046 76.1046 57 75 57H23C21.8954 57 21 56.1046 21 55V8Z" fill="#0072CE" fill-opacity="0.1"/>
</svg>
