<svg width="24" height="24" viewBox="0 0 24 24" fill="none" xmlns="http://www.w3.org/2000/svg">
<path d="M14.0002 2H6.00024C5.46981 2 4.9611 2.21071 4.58603 2.58579C4.21096 2.96086 4.00024 3.46957 4.00024 4V20C4.00024 20.5304 4.21096 21.0391 4.58603 21.4142C4.9611 21.7893 5.46981 22 6.00024 22H18.0002C18.5307 22 19.0394 21.7893 19.4145 21.4142C19.7895 21.0391 20.0002 20.5304 20.0002 20V8L14.0002 2Z" stroke="#526E88" stroke-width="1.5" stroke-linecap="round" stroke-linejoin="round"/>
<path d="M14.0002 2V8H20.0002" stroke="#526E88" stroke-width="1.5" stroke-linecap="round" stroke-linejoin="round"/>
<path d="M16.0002 13H8.00024" stroke="#526E88" stroke-width="1.5" stroke-linecap="round" stroke-linejoin="round"/>
<path d="M16.0002 17H8.00024" stroke="#526E88" stroke-width="1.5" stroke-linecap="round" stroke-linejoin="round"/>
<path d="M10.0002 9H9.00024H8.00024" stroke="#526E88" stroke-width="1.5" stroke-linecap="round" stroke-linejoin="round"/>
</svg>
