<svg width="31" height="24" viewBox="0 0 31 24" fill="none" xmlns="http://www.w3.org/2000/svg">
<path d="M7 16.8365H8.69505V13.2262H10.3244L12.1771 16.8365H14.0693L12.1509 13.2262C11.9669 12.8856 11.8355 12.7493 11.8355 12.7493V12.7221C12.821 12.3134 13.4123 11.2371 13.4123 10.079C13.4123 8.79837 12.821 7.87193 11.8881 7.43597C11.4807 7.24523 11.0208 7.16349 10.009 7.16349H7V16.8365ZM8.69505 11.7003V8.67575H9.98277C11.3099 8.67575 11.691 9.24796 11.691 10.1744C11.691 11.1417 11.1259 11.7003 10.2193 11.7003H8.69505Z" fill="white"/>
<path d="M15.6488 16.8365H21.4435V15.3243H17.3438V12.7221H20.4842V11.2098H17.3438V8.67575H21.2332V7.16349H15.6488V16.8365Z" fill="white"/>
<path d="M22.5116 11.9591C22.5116 14.8065 24.4826 17 27.334 17C29.7123 17 31 15.4332 31 15.4332L30.1065 14.1662C30.1065 14.1662 29.0159 15.3924 27.3997 15.3924C25.4549 15.3924 24.2592 13.7711 24.2592 11.9319C24.2592 10.1335 25.4155 8.60763 27.3865 8.60763C28.8713 8.60763 29.9357 9.62943 29.9357 9.62943L30.7503 8.32153C30.7503 8.32153 29.5809 7 27.3077 7C24.5614 7 22.5116 9.15259 22.5116 11.9591Z" fill="white"/>
<circle cx="2" cy="12" r="2" fill="white"/>
</svg>
