<svg width="24" height="24" viewBox="0 0 24 24" fill="none" xmlns="http://www.w3.org/2000/svg">
<path d="M8.46967 11.4697C8.17678 11.7626 8.17678 12.2374 8.46967 12.5303C8.76256 12.8232 9.23744 12.8232 9.53033 12.5303L8.46967 11.4697ZM12 9L12.5303 8.46967C12.2374 8.17678 11.7626 8.17678 11.4697 8.46967L12 9ZM14.4697 12.5303C14.7626 12.8232 15.2374 12.8232 15.5303 12.5303C15.8232 12.2374 15.8232 11.7626 15.5303 11.4697L14.4697 12.5303ZM11.25 16C11.25 16.4142 11.5858 16.75 12 16.75C12.4142 16.75 12.75 16.4142 12.75 16H11.25ZM9.53033 12.5303L12.5303 9.53033L11.4697 8.46967L8.46967 11.4697L9.53033 12.5303ZM11.4697 9.53033L14.4697 12.5303L15.5303 11.4697L12.5303 8.46967L11.4697 9.53033ZM11.25 9V16H12.75V9H11.25ZM4.22222 4.75H19.7778V3.25H4.22222V4.75ZM19.7778 4.75C20.1818 4.75 20.5583 4.91833 20.836 5.17879C21.1204 5.44557 21.25 5.75798 21.25 6H22.75C22.75 5.26018 22.3822 4.57259 21.8623 4.08483C21.3356 3.59075 20.6011 3.25 19.7778 3.25V4.75ZM21.25 6V18H22.75V6H21.25ZM21.25 18C21.25 18.242 21.1204 18.5544 20.836 18.8212C20.5583 19.0817 20.1818 19.25 19.7778 19.25V20.75C20.6011 20.75 21.3356 20.4092 21.8623 19.9152C22.3822 19.4274 22.75 18.7398 22.75 18H21.25ZM19.7778 19.25H4.22222V20.75H19.7778V19.25ZM4.22222 19.25C3.81822 19.25 3.44165 19.0817 3.16402 18.8212C2.87965 18.5544 2.75 18.242 2.75 18H1.25C1.25 18.7398 1.61782 19.4274 2.13773 19.9152C2.66438 20.4092 3.39892 20.75 4.22222 20.75V19.25ZM2.75 18V6H1.25V18H2.75ZM2.75 6C2.75 5.75798 2.87965 5.44557 3.16402 5.17879C3.44165 4.91833 3.81822 4.75 4.22222 4.75V3.25C3.39892 3.25 2.66438 3.59075 2.13773 4.08483C1.61782 4.57259 1.25 5.26018 1.25 6H2.75Z" fill="#49BF78"/>
</svg>
