<svg width="100" height="63" viewBox="0 0 100 63" fill="none" xmlns="http://www.w3.org/2000/svg">
<rect x="0.5" y="0.5" width="99" height="62" rx="5.5" fill="#F5F7FA"/>
<path d="M8 8C8 6.89543 8.89543 6 10 6H31C32.1046 6 33 6.89543 33 8V55C33 56.1046 32.1046 57 31 57H10C8.89543 57 8 56.1046 8 55V8Z" fill="#0072CE" fill-opacity="0.1" />
<path d="M37 8C37 6.89543 37.8954 6 39 6H90C91.1046 6 92 6.89543 92 8V55C92 56.1046 91.1046 57 90 57H39C37.8954 57 37 56.1046 37 55V8Z" fill="#0072CE" fill-opacity="0.1"/>
</svg>
