<svg width="20" height="20" viewBox="0 0 20 20" fill="none" xmlns="http://www.w3.org/2000/svg">
<path d="M2.5 4.24984C2.08579 4.24984 1.75 4.58562 1.75 4.99984C1.75 5.41405 2.08579 5.74984 2.5 5.74984V4.24984ZM17.5 5.74984C17.9142 5.74984 18.25 5.41405 18.25 4.99984C18.25 4.58562 17.9142 4.24984 17.5 4.24984V5.74984ZM15.8333 4.99984H16.5833C16.5833 4.58562 16.2475 4.24984 15.8333 4.24984V4.99984ZM4.16667 16.6665H3.41667H4.16667ZM5.91667 4.99984C5.91667 5.41405 6.25245 5.74984 6.66667 5.74984C7.08088 5.74984 7.41667 5.41405 7.41667 4.99984H5.91667ZM8.33333 1.6665V0.916504V1.6665ZM11.6667 1.6665V0.916504V1.6665ZM12.5833 4.99984C12.5833 5.41405 12.9191 5.74984 13.3333 5.74984C13.7475 5.74984 14.0833 5.41405 14.0833 4.99984H12.5833ZM9.08333 9.1665C9.08333 8.75229 8.74755 8.4165 8.33333 8.4165C7.91912 8.4165 7.58333 8.75229 7.58333 9.1665H9.08333ZM7.58333 14.1665C7.58333 14.5807 7.91912 14.9165 8.33333 14.9165C8.74755 14.9165 9.08333 14.5807 9.08333 14.1665H7.58333ZM12.4167 9.1665C12.4167 8.75229 12.0809 8.4165 11.6667 8.4165C11.2525 8.4165 10.9167 8.75229 10.9167 9.1665H12.4167ZM10.9167 14.1665C10.9167 14.5807 11.2525 14.9165 11.6667 14.9165C12.0809 14.9165 12.4167 14.5807 12.4167 14.1665H10.9167ZM2.5 5.74984H4.16667V4.24984H2.5V5.74984ZM4.16667 5.74984H17.5V4.24984H4.16667V5.74984ZM15.0833 4.99984V16.6665H16.5833V4.99984H15.0833ZM15.0833 16.6665C15.0833 16.9096 14.9868 17.1428 14.8148 17.3147L15.8755 18.3753C16.3287 17.9221 16.5833 17.3074 16.5833 16.6665H15.0833ZM14.8148 17.3147C14.6429 17.4866 14.4098 17.5832 14.1667 17.5832V19.0832C14.8076 19.0832 15.4223 18.8286 15.8755 18.3753L14.8148 17.3147ZM14.1667 17.5832H5.83333V19.0832H14.1667V17.5832ZM5.83333 17.5832C5.59022 17.5832 5.35706 17.4866 5.18515 17.3147L4.12449 18.3753C4.5777 18.8286 5.19239 19.0832 5.83333 19.0832V17.5832ZM5.18515 17.3147C5.01324 17.1428 4.91667 16.9096 4.91667 16.6665H3.41667C3.41667 17.3074 3.67128 17.9221 4.12449 18.3753L5.18515 17.3147ZM4.91667 16.6665V4.99984H3.41667V16.6665H4.91667ZM4.16667 5.74984H15.8333V4.24984H4.16667V5.74984ZM7.41667 4.99984V3.33317H5.91667V4.99984H7.41667ZM7.41667 3.33317C7.41667 3.09006 7.51324 2.8569 7.68515 2.68499L6.62449 1.62433C6.17128 2.07754 5.91667 2.69223 5.91667 3.33317H7.41667ZM7.68515 2.68499C7.85706 2.51308 8.09022 2.4165 8.33333 2.4165V0.916504C7.69239 0.916504 7.0777 1.17112 6.62449 1.62433L7.68515 2.68499ZM8.33333 2.4165H11.6667V0.916504H8.33333V2.4165ZM11.6667 2.4165C11.9098 2.4165 12.1429 2.51308 12.3148 2.68499L13.3755 1.62433C12.9223 1.17112 12.3076 0.916504 11.6667 0.916504V2.4165ZM12.3148 2.68499C12.4868 2.8569 12.5833 3.09006 12.5833 3.33317H14.0833C14.0833 2.69223 13.8287 2.07754 13.3755 1.62433L12.3148 2.68499ZM12.5833 3.33317V4.99984H14.0833V3.33317H12.5833ZM7.58333 9.1665V14.1665H9.08333V9.1665H7.58333ZM10.9167 9.1665V14.1665H12.4167V9.1665H10.9167Z" fill="#526E88"/>
</svg>
