<svg width="24" height="24" viewBox="0 0 24 24" fill="none" xmlns="http://www.w3.org/2000/svg">
<path d="M6.25 11C6.25 11.4142 6.58579 11.75 7 11.75C7.41421 11.75 7.75 11.4142 7.75 11H6.25ZM7 7H7.75L7.75 6.99925L7 7ZM16.165 6.14925C16.2474 6.55518 16.6433 6.81743 17.0492 6.735C17.4552 6.65258 17.7174 6.25668 17.635 5.85075L16.165 6.14925ZM5.77778 11.75H18.2222V10.25H5.77778V11.75ZM18.2222 11.75C18.7092 11.75 19.25 12.2242 19.25 13H20.75C20.75 11.5667 19.6989 10.25 18.2222 10.25V11.75ZM19.25 13V20H20.75V13H19.25ZM19.25 20C19.25 20.7758 18.7092 21.25 18.2222 21.25V22.75C19.6989 22.75 20.75 21.4333 20.75 20H19.25ZM18.2222 21.25H5.77778V22.75H18.2222V21.25ZM5.77778 21.25C5.29076 21.25 4.75 20.7758 4.75 20H3.25C3.25 21.4333 4.30112 22.75 5.77778 22.75V21.25ZM4.75 20V13H3.25V20H4.75ZM4.75 13C4.75 12.2242 5.29076 11.75 5.77778 11.75V10.25C4.30112 10.25 3.25 11.5667 3.25 13H4.75ZM7.75 11V7H6.25V11H7.75ZM7.75 6.99925C7.74894 5.94529 8.13954 4.92853 8.84597 4.14636L7.73278 3.14097C6.77702 4.1992 6.24857 5.57481 6.25 7.00075L7.75 6.99925ZM8.84597 4.14636C9.5524 3.36419 10.5243 2.87241 11.5729 2.76649L11.4221 1.27409C10.0034 1.41739 8.68854 2.08274 7.73278 3.14097L8.84597 4.14636ZM11.5729 2.76649C12.6215 2.66057 13.6721 2.94807 14.5207 3.57316L15.4103 2.36546C14.2622 1.51974 12.8409 1.13078 11.4221 1.27409L11.5729 2.76649ZM14.5207 3.57316C15.3692 4.19826 15.9553 5.11637 16.165 6.14925L17.635 5.85075C17.3512 4.45333 16.5584 3.21119 15.4103 2.36546L14.5207 3.57316Z" fill="#526E88"/>
</svg>
