<svg width="80" height="80" viewBox="0 0 80 80" fill="none" xmlns="http://www.w3.org/2000/svg">
<g clip-path="url(#clip0_3875_9340)">
<path d="M78.668 73.3333C78.668 74.2537 77.9217 75 77.0013 75L0.334687 75C-0.585781 74.9998 -1.33203 74.2538 -1.33203 73.3333C-1.33203 72.4128 -0.585782 71.6666 0.334687 71.6666L77.0014 71.6666C77.9217 71.6666 78.668 72.4128 78.668 73.3333Z" fill="#526E88"/>
<path d="M51.9492 63.3333L51.9492 33.3333C51.9492 32.4128 52.6955 31.6665 53.6159 31.6665L63.6159 31.6665C64.5364 31.6665 65.2827 32.4128 65.2827 33.3333L65.2827 63.3333C65.2827 64.2537 64.5364 65 63.6159 65L53.6159 65C52.6955 64.9998 51.9492 64.2537 51.9492 63.3333Z" fill="#D1DCE7"/>
<path d="M11.9492 63.3333L11.9492 23.3333C11.9492 22.4128 12.6955 21.6666 13.6159 21.6666L23.6159 21.6666C24.5364 21.6666 25.2827 22.4128 25.2827 23.3333L25.2827 63.3333C25.2827 64.2537 24.5364 65 23.6159 65L13.6159 65C12.6955 64.9998 11.9492 64.2537 11.9492 63.3333Z" fill="#526E88"/>
<path d="M31.9492 63.3333L31.9492 6.66656C31.9492 5.7461 32.6955 4.99985 33.6159 4.99985L43.6159 4.99985C44.5364 4.99985 45.2827 5.7461 45.2827 6.66656L45.2827 63.3333C45.2827 64.2537 44.5364 65 43.6159 65L33.6159 65C32.6955 64.9998 31.9492 64.2537 31.9492 63.3333Z" fill="#95A7B8"/>
</g>
<defs>
<clipPath id="clip0_3875_9340">
<rect width="80" height="80" fill="white"/>
</clipPath>
</defs>
</svg>
