<svg width="24" height="24" viewBox="0 0 24 24" fill="none" xmlns="http://www.w3.org/2000/svg">
<path d="M20.4697 21.5303C20.7626 21.8232 21.2374 21.8232 21.5303 21.5303C21.8232 21.2374 21.8232 20.7626 21.5303 20.4697L20.4697 21.5303ZM17.1803 16.1197C16.8874 15.8268 16.4126 15.8268 16.1197 16.1197C15.8268 16.4126 15.8268 16.8874 16.1197 17.1803L17.1803 16.1197ZM11.75 8C11.75 7.58579 11.4142 7.25 11 7.25C10.5858 7.25 10.25 7.58579 10.25 8H11.75ZM10.25 14C10.25 14.4142 10.5858 14.75 11 14.75C11.4142 14.75 11.75 14.4142 11.75 14H10.25ZM8 10.25C7.58579 10.25 7.25 10.5858 7.25 11C7.25 11.4142 7.58579 11.75 8 11.75V10.25ZM14 11.75C14.4142 11.75 14.75 11.4142 14.75 11C14.75 10.5858 14.4142 10.25 14 10.25V11.75ZM18.25 11C18.25 15.0041 15.0041 18.25 11 18.25V19.75C15.8325 19.75 19.75 15.8325 19.75 11H18.25ZM11 18.25C6.99594 18.25 3.75 15.0041 3.75 11H2.25C2.25 15.8325 6.16751 19.75 11 19.75V18.25ZM3.75 11C3.75 6.99594 6.99594 3.75 11 3.75V2.25C6.16751 2.25 2.25 6.16751 2.25 11H3.75ZM11 3.75C15.0041 3.75 18.25 6.99594 18.25 11H19.75C19.75 6.16751 15.8325 2.25 11 2.25V3.75ZM21.5303 20.4697L17.1803 16.1197L16.1197 17.1803L20.4697 21.5303L21.5303 20.4697ZM10.25 8V14H11.75V8H10.25ZM8 11.75H14V10.25H8V11.75Z" fill="#526E88"/>
</svg>
