<svg width="80" height="80" viewBox="0 0 80 80" fill="none" xmlns="http://www.w3.org/2000/svg">
<g clip-path="url(#clip0_3875_9335)">
<path d="M55.9689 55.9627C47.1528 64.8024 32.8399 64.8216 24.0002 56.0057C15.1605 47.1896 15.1412 32.8767 23.9571 24.037C28.2087 19.774 33.9852 17.3832 40.006 17.3946V0.00586125C17.9179 -0.000822538 0.00668565 17.8998 1.8711e-06 39.9879C-0.00668191 62.076 17.894 79.9873 39.9821 79.994C50.5962 79.9972 60.7763 75.7809 68.2801 68.274L55.9689 55.9627Z" fill="#0072CE"/>
<path d="M79.9999 40C79.9997 50.6065 75.7836 60.7779 68.28 68.274L55.9688 55.9628C60.226 51.7426 62.6178 45.9945 62.6113 40H79.9999Z" fill="#49BF78"/>
<path d="M79.9979 39.9998H62.6093C62.5843 27.5256 52.4783 17.4194 40.0039 17.3945V0.00585938C62.0809 0.0325945 79.9711 17.923 79.9979 39.9998Z" fill="#ED8B00"/>
</g>
<defs>
<clipPath id="clip0_3875_9335">
<rect width="80" height="80" fill="white"/>
</clipPath>
</defs>
</svg>
