<svg width="80" height="80" viewBox="0 0 80 80" fill="none" xmlns="http://www.w3.org/2000/svg">
<g clip-path="url(#clip0_3875_9377)">
<path d="M78.3333 73.3333H1.66672C0.74625 73.3333 0 72.5872 0 71.6667C0 70.7462 0.74625 70 1.66672 70H78.3334C79.2539 70 80.0002 70.7462 80.0002 71.6667C80 72.5872 79.2538 73.3333 78.3333 73.3333Z" fill="#526E88"/>
<path d="M8.33469 80C7.41422 80 6.66797 79.2538 6.66797 78.3333V1.66672C6.66812 0.74625 7.41422 0 8.33469 0C9.25516 0 10.0014 0.74625 10.0014 1.66672V78.3334C10.0014 79.2538 9.25516 80 8.33469 80Z" fill="#526E88"/>
<path d="M18.3347 50H48.3347C49.2552 50 50.0014 50.7462 50.0014 51.6667V61.6667C50.0014 62.5872 49.2552 63.3334 48.3347 63.3334H18.3347C17.4142 63.3334 16.668 62.5872 16.668 61.6667V51.6667C16.6681 50.7462 17.4142 50 18.3347 50Z" fill="#49BF78"/>
<path d="M18.3347 10H58.3347C59.2552 10 60.0014 10.7463 60.0014 11.6667V21.6667C60.0014 22.5872 59.2552 23.3334 58.3347 23.3334H18.3347C17.4142 23.3334 16.668 22.5872 16.668 21.6667V11.6667C16.6681 10.7463 17.4142 10 18.3347 10Z" fill="#0072CE"/>
<path d="M18.3347 30H75.0014C75.9219 30 76.6681 30.7463 76.6681 31.6667V41.6667C76.6681 42.5872 75.9219 43.3334 75.0014 43.3334H18.3347C17.4142 43.3334 16.668 42.5872 16.668 41.6667V31.6667C16.6681 30.7463 17.4142 30 18.3347 30Z" fill="#ED8B00"/>
</g>
<defs>
<clipPath id="clip0_3875_9377">
<rect width="80" height="80" fill="white"/>
</clipPath>
</defs>
</svg>
