<svg width="80" height="80" viewBox="0 0 80 80" fill="none" xmlns="http://www.w3.org/2000/svg">
<g clip-path="url(#clip0_3875_9390)">
<path d="M80.332 73.9993C80.332 74.9198 79.5858 75.666 78.6653 75.666L1.99875 75.666C1.07828 75.6659 0.332031 74.9198 0.332031 73.9993C0.332031 73.0788 1.07828 72.3326 1.99875 72.3326L78.6655 72.3326C79.5858 72.3326 80.332 73.0788 80.332 73.9993Z" fill="#526E88"/>
<path d="M28.332 62.6663L28.332 5.99972C28.332 5.07926 29.6753 4.33301 31.3321 4.33301L49.332 4.33301C50.9888 4.33301 52.332 5.07926 52.332 5.99972L52.332 62.6663C52.332 63.5868 50.9888 64.333 49.332 64.333L31.3321 64.333C29.6753 64.3329 28.332 63.5868 28.332 62.6663Z" fill="#0072CE"/>
<path d="M28.332 63.083L28.332 20.583C28.332 19.8927 29.6753 19.333 31.3321 19.333L49.332 19.333C50.9888 19.333 52.332 19.8927 52.332 20.583L52.332 63.083C52.332 63.7733 50.9888 64.333 49.332 64.333L31.3321 64.333C29.6753 64.3329 28.332 63.7733 28.332 63.083Z" fill="#ED8B00"/>
<path d="M28.332 63.5274L28.332 36.1386C28.332 35.6937 29.6753 35.333 31.3321 35.333L49.332 35.333C50.9888 35.333 52.332 35.6937 52.332 36.1386L52.332 63.5274C52.332 63.9723 50.9888 64.333 49.332 64.333L31.3321 64.333C29.6753 64.3329 28.332 63.9723 28.332 63.5274Z" fill="#49BF78"/>
</g>
<defs>
<clipPath id="clip0_3875_9390">
<rect width="80" height="80" fill="white"/>
</clipPath>
</defs>
</svg>
