<svg width="80" height="80" viewBox="0 0 80 80" fill="none" xmlns="http://www.w3.org/2000/svg">
<path d="M8.33469 80C7.41422 80 6.66797 79.2538 6.66797 78.3333V1.66672C6.66812 0.74625 7.41422 0 8.33469 0C9.25516 0 10.0014 0.74625 10.0014 1.66672V78.3334C10.0014 79.2538 9.25516 80 8.33469 80Z" fill="#526E88"/>
<path d="M19.6667 28H76.3333C77.2537 28 78 29.3432 78 31.0001V48.9999C78 50.6568 77.2537 52 76.3333 52H19.6667C18.7462 52 18 50.6568 18 48.9999V31.0001C18.0002 29.3432 18.7462 28 19.6667 28Z" fill="#0072CE"/>
<path d="M19.25 28H61.75C62.4403 28 63 29.3432 63 31.0001V48.9999C63 50.6568 62.4403 52 61.75 52H19.25C18.5597 52 18 50.6568 18 48.9999V31.0001C18.0001 29.3432 18.5597 28 19.25 28Z" fill="#ED8B00"/>
<path d="M18.8056 28H46.1944C46.6393 28 47 29.3432 47 31.0001V48.9999C47 50.6568 46.6393 52 46.1944 52H18.8056C18.3607 52 18 50.6568 18 48.9999V31.0001C18.0001 29.3432 18.3607 28 18.8056 28Z" fill="#49BF78"/>
</svg>
