<svg width="16" height="16" viewBox="0 0 16 16" fill="none" xmlns="http://www.w3.org/2000/svg">
<path fill-rule="evenodd" clip-rule="evenodd" d="M1.53272 7.52861C1.79379 7.26826 2.21708 7.26826 2.47815 7.52861L5.15225 10.1953C5.41332 10.4556 5.41332 10.8777 5.15225 11.1381C4.89117 11.3984 4.46789 11.3984 4.20681 11.1381L1.53272 8.47141C1.27165 8.21106 1.27165 7.78895 1.53272 7.52861Z" fill="#0072CE"/>
<path fill-rule="evenodd" clip-rule="evenodd" d="M6.21241 8.19526C6.47348 7.93491 6.89677 7.93491 7.15784 8.19526L9.16341 10.1953C9.42448 10.4556 9.42448 10.8777 9.16341 11.1381C8.90234 11.3984 8.47905 11.3984 8.21798 11.1381L6.21241 9.13807C5.95133 8.87772 5.95133 8.45561 6.21241 8.19526Z" fill="#0072CE"/>
<path fill-rule="evenodd" clip-rule="evenodd" d="M10.5002 4.86192C10.7612 5.12227 10.7612 5.54438 10.5002 5.80473L5.15198 11.1381C4.89091 11.3984 4.46762 11.3984 4.20655 11.1381C3.94547 10.8777 3.94547 10.4556 4.20655 10.1953L9.55473 4.86192C9.81581 4.60157 10.2391 4.60157 10.5002 4.86192Z" fill="#0072CE"/>
<path fill-rule="evenodd" clip-rule="evenodd" d="M14.5119 4.86192C14.773 5.12227 14.773 5.54438 14.5119 5.80473L9.1637 11.1381C8.90263 11.3984 8.47934 11.3984 8.21827 11.1381C7.95719 10.8777 7.95719 10.4556 8.21827 10.1953L13.5665 4.86192C13.8275 4.60157 14.2508 4.60157 14.5119 4.86192Z" fill="#0072CE"/>
</svg>
