<svg width="18" height="18" viewBox="0 0 18 18" fill="none" xmlns="http://www.w3.org/2000/svg">
<path d="M17.25 11.5C17.25 11.0858 16.9142 10.75 16.5 10.75C16.0858 10.75 15.75 11.0858 15.75 11.5H17.25ZM1.5 14.8333H0.75H1.5ZM2.25 11.5C2.25 11.0858 1.91421 10.75 1.5 10.75C1.08579 10.75 0.75 11.0858 0.75 11.5H2.25ZM5.36366 6.803C5.07077 6.51011 4.5959 6.51011 4.303 6.803C4.01011 7.0959 4.01011 7.57077 4.303 7.86366L5.36366 6.803ZM9 11.5L8.46967 12.0303C8.76256 12.3232 9.23744 12.3232 9.53033 12.0303L9 11.5ZM13.697 7.86366C13.9899 7.57077 13.9899 7.0959 13.697 6.803C13.4041 6.51011 12.9292 6.51011 12.6363 6.803L13.697 7.86366ZM9.75 1.5C9.75 1.08579 9.41421 0.75 9 0.75C8.58579 0.75 8.25 1.08579 8.25 1.5H9.75ZM15.75 11.5V14.8333H17.25V11.5H15.75ZM15.75 14.8333C15.75 15.0764 15.6534 15.3096 15.4815 15.4815L16.5422 16.5422C16.9954 16.089 17.25 15.4743 17.25 14.8333H15.75ZM15.4815 15.4815C15.3096 15.6534 15.0764 15.75 14.8333 15.75V17.25C15.4743 17.25 16.089 16.9954 16.5422 16.5422L15.4815 15.4815ZM14.8333 15.75H3.16667V17.25H14.8333V15.75ZM3.16667 15.75C2.92355 15.75 2.69039 15.6534 2.51849 15.4815L1.45783 16.5422C1.91104 16.9954 2.52573 17.25 3.16667 17.25V15.75ZM2.51849 15.4815C2.34658 15.3096 2.25 15.0764 2.25 14.8333H0.75C0.75 15.4743 1.00461 16.089 1.45783 16.5422L2.51849 15.4815ZM2.25 14.8333V11.5H0.75V14.8333H2.25ZM4.303 7.86366L8.46967 12.0303L9.53033 10.9697L5.36366 6.803L4.303 7.86366ZM9.53033 12.0303L13.697 7.86366L12.6363 6.803L8.46967 10.9697L9.53033 12.0303ZM9.75 11.5V1.5H8.25V11.5H9.75Z" fill="#0072CE"/>
</svg>
