<svg width="24" height="24" viewBox="0 0 24 24" fill="none" xmlns="http://www.w3.org/2000/svg">
<path d="M19 14.25C18.5858 14.25 18.25 14.5858 18.25 15C18.25 15.4142 18.5858 15.75 19 15.75V14.25ZM20 2V1.25V2ZM11 2V1.25V2ZM8.25 5C8.25 5.41421 8.58579 5.75 9 5.75C9.41421 5.75 9.75 5.41421 9.75 5H8.25ZM13 8.25H4V9.75H13V8.25ZM4 8.25C2.48122 8.25 1.25 9.48122 1.25 11H2.75C2.75 10.3096 3.30964 9.75 4 9.75V8.25ZM1.25 11V20H2.75V11H1.25ZM1.25 20C1.25 21.5188 2.48122 22.75 4 22.75V21.25C3.30964 21.25 2.75 20.6904 2.75 20H1.25ZM4 22.75H13V21.25H4V22.75ZM13 22.75C14.5188 22.75 15.75 21.5188 15.75 20H14.25C14.25 20.6904 13.6904 21.25 13 21.25V22.75ZM15.75 20V11H14.25V20H15.75ZM15.75 11C15.75 9.48122 14.5188 8.25 13 8.25V9.75C13.6904 9.75 14.25 10.3096 14.25 11H15.75ZM19 15.75H20V14.25H19V15.75ZM20 15.75C20.7293 15.75 21.4288 15.4603 21.9445 14.9445L20.8839 13.8839C20.6495 14.1183 20.3315 14.25 20 14.25V15.75ZM21.9445 14.9445C22.4603 14.4288 22.75 13.7293 22.75 13H21.25C21.25 13.3315 21.1183 13.6495 20.8839 13.8839L21.9445 14.9445ZM22.75 13V4H21.25V13H22.75ZM22.75 4C22.75 3.27065 22.4603 2.57118 21.9445 2.05546L20.8839 3.11612C21.1183 3.35054 21.25 3.66848 21.25 4H22.75ZM21.9445 2.05546C21.4288 1.53973 20.7293 1.25 20 1.25V2.75C20.3315 2.75 20.6495 2.8817 20.8839 3.11612L21.9445 2.05546ZM20 1.25H11V2.75H20V1.25ZM11 1.25C10.2707 1.25 9.57118 1.53973 9.05546 2.05546L10.1161 3.11612C10.3505 2.8817 10.6685 2.75 11 2.75V1.25ZM9.05546 2.05546C8.53973 2.57118 8.25 3.27065 8.25 4H9.75C9.75 3.66848 9.8817 3.35054 10.1161 3.11612L9.05546 2.05546ZM8.25 4V5H9.75V4H8.25Z" fill="#0072CE"/>
</svg>
