<svg width="20" height="21" viewBox="0 0 20 21" fill="none" xmlns="http://www.w3.org/2000/svg">
<path d="M3.33333 11.4167C2.91912 11.4167 2.58333 11.7525 2.58333 12.1667C2.58333 12.5809 2.91912 12.9167 3.33333 12.9167V11.4167ZM8.33333 12.1667H9.08333C9.08333 11.7525 8.74755 11.4167 8.33333 11.4167V12.1667ZM7.58333 17.1667C7.58333 17.5809 7.91912 17.9167 8.33333 17.9167C8.74755 17.9167 9.08333 17.5809 9.08333 17.1667H7.58333ZM16.6667 9.58333C17.0809 9.58333 17.4167 9.24755 17.4167 8.83333C17.4167 8.41912 17.0809 8.08333 16.6667 8.08333V9.58333ZM11.6667 8.83333H10.9167C10.9167 9.24755 11.2525 9.58333 11.6667 9.58333V8.83333ZM12.4167 3.83333C12.4167 3.41912 12.0809 3.08333 11.6667 3.08333C11.2525 3.08333 10.9167 3.41912 10.9167 3.83333H12.4167ZM18.0303 3.53033C18.3232 3.23744 18.3232 2.76256 18.0303 2.46967C17.7374 2.17678 17.2626 2.17678 16.9697 2.46967L18.0303 3.53033ZM1.96967 17.4697C1.67678 17.7626 1.67678 18.2374 1.96967 18.5303C2.26256 18.8232 2.73744 18.8232 3.03033 18.5303L1.96967 17.4697ZM3.33333 12.9167H8.33333V11.4167H3.33333V12.9167ZM7.58333 12.1667V17.1667H9.08333V12.1667H7.58333ZM16.6667 8.08333H11.6667V9.58333H16.6667V8.08333ZM12.4167 8.83333V3.83333H10.9167V8.83333H12.4167ZM12.197 9.36366L18.0303 3.53033L16.9697 2.46967L11.1363 8.303L12.197 9.36366ZM3.03033 18.5303L8.86366 12.697L7.803 11.6363L1.96967 17.4697L3.03033 18.5303Z" fill="#0072CE"/>
</svg>
