<svg width="40" height="40" viewBox="0 0 40 40" fill="none" xmlns="http://www.w3.org/2000/svg">
<path fill-rule="evenodd" clip-rule="evenodd" d="M6.66602 6.66732C5.74554 6.66732 4.99935 7.41351 4.99935 8.33398V25.0007C4.99935 25.9211 5.74554 26.6673 6.66602 26.6673H33.3327C34.2532 26.6673 34.9993 25.9211 34.9993 25.0007V8.33398C34.9993 7.41351 34.2532 6.66732 33.3327 6.66732H6.66602ZM1.66602 8.33398C1.66602 5.57256 3.90459 3.33398 6.66602 3.33398H33.3327C36.0941 3.33398 38.3327 5.57256 38.3327 8.33398V25.0007C38.3327 27.7621 36.0941 30.0007 33.3327 30.0007H6.66602C3.90459 30.0007 1.66602 27.7621 1.66602 25.0007V8.33398Z" fill="#0072CE"/>
<path fill-rule="evenodd" clip-rule="evenodd" d="M11.666 35.0007C11.666 34.0802 12.4122 33.334 13.3327 33.334H26.666C27.5865 33.334 28.3327 34.0802 28.3327 35.0007C28.3327 35.9211 27.5865 36.6673 26.666 36.6673H13.3327C12.4122 36.6673 11.666 35.9211 11.666 35.0007Z" fill="#0072CE"/>
<path fill-rule="evenodd" clip-rule="evenodd" d="M19.9993 26.6673C20.9198 26.6673 21.666 27.4135 21.666 28.334V35.0007C21.666 35.9211 20.9198 36.6673 19.9993 36.6673C19.0789 36.6673 18.3327 35.9211 18.3327 35.0007V28.334C18.3327 27.4135 19.0789 26.6673 19.9993 26.6673Z" fill="#0072CE"/>
</svg>
