<svg width="40" height="40" viewBox="0 0 40 40" fill="none" xmlns="http://www.w3.org/2000/svg">
<path fill-rule="evenodd" clip-rule="evenodd" d="M11.666 3.33333C10.7455 3.33333 9.99935 4.07953 9.99935 5V35C9.99935 35.9205 10.7455 36.6667 11.666 36.6667H26.666C27.5865 36.6667 28.3327 35.9205 28.3327 35V5C28.3327 4.07953 27.5865 3.33333 26.666 3.33333H11.666ZM6.66602 5C6.66602 2.23858 8.90459 0 11.666 0H26.666C29.4274 0 31.666 2.23858 31.666 5V35C31.666 37.7614 29.4274 40 26.666 40H11.666C8.90459 40 6.66602 37.7614 6.66602 35V5Z" fill="#0072CE"/>
<path d="M13.3327 31.6667C13.3327 30.7462 14.0789 30 14.9993 30H23.3327C24.2532 30 24.9993 30.7462 24.9993 31.6667C24.9993 32.5871 24.2532 33.3333 23.3327 33.3333H14.9993C14.0789 33.3333 13.3327 32.5871 13.3327 31.6667Z" fill="#0072CE"/>
</svg>
