<svg width="40" height="40" viewBox="0 0 40 40" fill="none" xmlns="http://www.w3.org/2000/svg">
<g clip-path="url(#clip0_2339_5953)">
<path fill-rule="evenodd" clip-rule="evenodd" d="M3.33333 27.5C3.33333 28.4205 4.07953 29.1667 5 29.1667L35 29.1667C35.9205 29.1667 36.6667 28.4205 36.6667 27.5L36.6667 12.5C36.6667 11.5795 35.9205 10.8333 35 10.8333L5 10.8333C4.07952 10.8333 3.33333 11.5795 3.33333 12.5L3.33333 27.5ZM5 32.5C2.23858 32.5 -9.78513e-08 30.2614 -2.18557e-07 27.5L-8.74228e-07 12.5C-9.94933e-07 9.73858 2.23858 7.5 5 7.5L35 7.5C37.7614 7.5 40 9.73858 40 12.5L40 27.5C40 30.2614 37.7614 32.5 35 32.5L5 32.5Z" fill="#0072CE"/>
<path d="M31.6667 25.8333C30.7462 25.8333 30 25.0871 30 24.1667L30 15.8333C30 14.9129 30.7462 14.1667 31.6667 14.1667C32.5871 14.1667 33.3333 14.9129 33.3333 15.8333L33.3333 24.1667C33.3333 25.0871 32.5871 25.8333 31.6667 25.8333Z" fill="#0072CE"/>
</g>
<defs>
<clipPath id="clip0_2339_5953">
<rect width="40" height="40" fill="white"/>
</clipPath>
</defs>
</svg>
