<svg width="40" height="40" viewBox="0 0 40 40" fill="none" xmlns="http://www.w3.org/2000/svg">
<path fill-rule="evenodd" clip-rule="evenodd" d="M10 4.99935C9.07952 4.99935 8.33333 5.74554 8.33333 6.66602V33.3327C8.33333 34.2532 9.07952 34.9993 10 34.9993H30C30.9205 34.9993 31.6667 34.2532 31.6667 33.3327V6.66602C31.6667 5.74554 30.9205 4.99935 30 4.99935H10ZM5 6.66602C5 3.90459 7.23858 1.66602 10 1.66602H30C32.7614 1.66602 35 3.90459 35 6.66602V33.3327C35 36.0941 32.7614 38.3327 30 38.3327H10C7.23858 38.3327 5 36.0941 5 33.3327V6.66602Z" fill="#0072CE"/>
<path fill-rule="evenodd" clip-rule="evenodd" d="M18.3333 29.9993C18.3333 29.0789 19.0795 28.3327 20 28.3327H20.0167C20.9371 28.3327 21.6833 29.0789 21.6833 29.9993C21.6833 30.9198 20.9371 31.666 20.0167 31.666H20C19.0795 31.666 18.3333 30.9198 18.3333 29.9993Z" fill="#0072CE"/>
</svg>
